G04 #@! TF.GenerationSoftware,KiCad,Pcbnew,(5.1.5-0-10_14)*
G04 #@! TF.CreationDate,2020-10-31T12:06:31+01:00*
G04 #@! TF.ProjectId,ti99-psu,74693939-2d70-4737-952e-6b696361645f,rev?*
G04 #@! TF.SameCoordinates,Original*
G04 #@! TF.FileFunction,Copper,L2,Bot*
G04 #@! TF.FilePolarity,Positive*
%FSLAX46Y46*%
G04 Gerber Fmt 4.6, Leading zero omitted, Abs format (unit mm)*
G04 Created by KiCad (PCBNEW (5.1.5-0-10_14)) date 2020-10-31 12:06:31*
%MOMM*%
%LPD*%
G04 APERTURE LIST*
%ADD10C,1.800000*%
%ADD11R,1.800000X1.800000*%
%ADD12C,2.500000*%
%ADD13O,3.160000X4.100000*%
%ADD14C,0.100000*%
%ADD15O,1.600000X1.600000*%
%ADD16C,1.600000*%
%ADD17O,2.200000X1.740000*%
%ADD18C,2.000000*%
%ADD19C,0.250000*%
G04 APERTURE END LIST*
D10*
X68262500Y-51625500D03*
D11*
X70802500Y-51625500D03*
D12*
X51689500Y-56578500D03*
X47274500Y-56578500D03*
X42859500Y-56578500D03*
X51689500Y-50141500D03*
X47274500Y-50141500D03*
X42859500Y-50141500D03*
D13*
X54460000Y-144843500D03*
X58420000Y-144843500D03*
X62380000Y-144843500D03*
G04 #@! TA.AperFunction,ComponentPad*
D14*
G36*
X67694504Y-142794704D02*
G01*
X67718773Y-142798304D01*
X67742571Y-142804265D01*
X67765671Y-142812530D01*
X67787849Y-142823020D01*
X67808893Y-142835633D01*
X67828598Y-142850247D01*
X67846777Y-142866723D01*
X67863253Y-142884902D01*
X67877867Y-142904607D01*
X67890480Y-142925651D01*
X67900970Y-142947829D01*
X67909235Y-142970929D01*
X67915196Y-142994727D01*
X67918796Y-143018996D01*
X67920000Y-143043500D01*
X67920000Y-146643500D01*
X67918796Y-146668004D01*
X67915196Y-146692273D01*
X67909235Y-146716071D01*
X67900970Y-146739171D01*
X67890480Y-146761349D01*
X67877867Y-146782393D01*
X67863253Y-146802098D01*
X67846777Y-146820277D01*
X67828598Y-146836753D01*
X67808893Y-146851367D01*
X67787849Y-146863980D01*
X67765671Y-146874470D01*
X67742571Y-146882735D01*
X67718773Y-146888696D01*
X67694504Y-146892296D01*
X67670000Y-146893500D01*
X65010000Y-146893500D01*
X64985496Y-146892296D01*
X64961227Y-146888696D01*
X64937429Y-146882735D01*
X64914329Y-146874470D01*
X64892151Y-146863980D01*
X64871107Y-146851367D01*
X64851402Y-146836753D01*
X64833223Y-146820277D01*
X64816747Y-146802098D01*
X64802133Y-146782393D01*
X64789520Y-146761349D01*
X64779030Y-146739171D01*
X64770765Y-146716071D01*
X64764804Y-146692273D01*
X64761204Y-146668004D01*
X64760000Y-146643500D01*
X64760000Y-143043500D01*
X64761204Y-143018996D01*
X64764804Y-142994727D01*
X64770765Y-142970929D01*
X64779030Y-142947829D01*
X64789520Y-142925651D01*
X64802133Y-142904607D01*
X64816747Y-142884902D01*
X64833223Y-142866723D01*
X64851402Y-142850247D01*
X64871107Y-142835633D01*
X64892151Y-142823020D01*
X64914329Y-142812530D01*
X64937429Y-142804265D01*
X64961227Y-142798304D01*
X64985496Y-142794704D01*
X65010000Y-142793500D01*
X67670000Y-142793500D01*
X67694504Y-142794704D01*
G37*
G04 #@! TD.AperFunction*
D15*
X83883500Y-51625500D03*
D16*
X76263500Y-51625500D03*
D17*
X100711000Y-135382000D03*
G04 #@! TA.AperFunction,ComponentPad*
D14*
G36*
X101585505Y-137053204D02*
G01*
X101609773Y-137056804D01*
X101633572Y-137062765D01*
X101656671Y-137071030D01*
X101678850Y-137081520D01*
X101699893Y-137094132D01*
X101719599Y-137108747D01*
X101737777Y-137125223D01*
X101754253Y-137143401D01*
X101768868Y-137163107D01*
X101781480Y-137184150D01*
X101791970Y-137206329D01*
X101800235Y-137229428D01*
X101806196Y-137253227D01*
X101809796Y-137277495D01*
X101811000Y-137301999D01*
X101811000Y-138542001D01*
X101809796Y-138566505D01*
X101806196Y-138590773D01*
X101800235Y-138614572D01*
X101791970Y-138637671D01*
X101781480Y-138659850D01*
X101768868Y-138680893D01*
X101754253Y-138700599D01*
X101737777Y-138718777D01*
X101719599Y-138735253D01*
X101699893Y-138749868D01*
X101678850Y-138762480D01*
X101656671Y-138772970D01*
X101633572Y-138781235D01*
X101609773Y-138787196D01*
X101585505Y-138790796D01*
X101561001Y-138792000D01*
X99860999Y-138792000D01*
X99836495Y-138790796D01*
X99812227Y-138787196D01*
X99788428Y-138781235D01*
X99765329Y-138772970D01*
X99743150Y-138762480D01*
X99722107Y-138749868D01*
X99702401Y-138735253D01*
X99684223Y-138718777D01*
X99667747Y-138700599D01*
X99653132Y-138680893D01*
X99640520Y-138659850D01*
X99630030Y-138637671D01*
X99621765Y-138614572D01*
X99615804Y-138590773D01*
X99612204Y-138566505D01*
X99611000Y-138542001D01*
X99611000Y-137301999D01*
X99612204Y-137277495D01*
X99615804Y-137253227D01*
X99621765Y-137229428D01*
X99630030Y-137206329D01*
X99640520Y-137184150D01*
X99653132Y-137163107D01*
X99667747Y-137143401D01*
X99684223Y-137125223D01*
X99702401Y-137108747D01*
X99722107Y-137094132D01*
X99743150Y-137081520D01*
X99765329Y-137071030D01*
X99788428Y-137062765D01*
X99812227Y-137056804D01*
X99836495Y-137053204D01*
X99860999Y-137052000D01*
X101561001Y-137052000D01*
X101585505Y-137053204D01*
G37*
G04 #@! TD.AperFunction*
D17*
X149733000Y-120523000D03*
G04 #@! TA.AperFunction,ComponentPad*
D14*
G36*
X150607505Y-122194204D02*
G01*
X150631773Y-122197804D01*
X150655572Y-122203765D01*
X150678671Y-122212030D01*
X150700850Y-122222520D01*
X150721893Y-122235132D01*
X150741599Y-122249747D01*
X150759777Y-122266223D01*
X150776253Y-122284401D01*
X150790868Y-122304107D01*
X150803480Y-122325150D01*
X150813970Y-122347329D01*
X150822235Y-122370428D01*
X150828196Y-122394227D01*
X150831796Y-122418495D01*
X150833000Y-122442999D01*
X150833000Y-123683001D01*
X150831796Y-123707505D01*
X150828196Y-123731773D01*
X150822235Y-123755572D01*
X150813970Y-123778671D01*
X150803480Y-123800850D01*
X150790868Y-123821893D01*
X150776253Y-123841599D01*
X150759777Y-123859777D01*
X150741599Y-123876253D01*
X150721893Y-123890868D01*
X150700850Y-123903480D01*
X150678671Y-123913970D01*
X150655572Y-123922235D01*
X150631773Y-123928196D01*
X150607505Y-123931796D01*
X150583001Y-123933000D01*
X148882999Y-123933000D01*
X148858495Y-123931796D01*
X148834227Y-123928196D01*
X148810428Y-123922235D01*
X148787329Y-123913970D01*
X148765150Y-123903480D01*
X148744107Y-123890868D01*
X148724401Y-123876253D01*
X148706223Y-123859777D01*
X148689747Y-123841599D01*
X148675132Y-123821893D01*
X148662520Y-123800850D01*
X148652030Y-123778671D01*
X148643765Y-123755572D01*
X148637804Y-123731773D01*
X148634204Y-123707505D01*
X148633000Y-123683001D01*
X148633000Y-122442999D01*
X148634204Y-122418495D01*
X148637804Y-122394227D01*
X148643765Y-122370428D01*
X148652030Y-122347329D01*
X148662520Y-122325150D01*
X148675132Y-122304107D01*
X148689747Y-122284401D01*
X148706223Y-122266223D01*
X148724401Y-122249747D01*
X148744107Y-122235132D01*
X148765150Y-122222520D01*
X148787329Y-122212030D01*
X148810428Y-122203765D01*
X148834227Y-122197804D01*
X148858495Y-122194204D01*
X148882999Y-122193000D01*
X150583001Y-122193000D01*
X150607505Y-122194204D01*
G37*
G04 #@! TD.AperFunction*
D17*
X43053000Y-120523000D03*
G04 #@! TA.AperFunction,ComponentPad*
D14*
G36*
X43927505Y-122194204D02*
G01*
X43951773Y-122197804D01*
X43975572Y-122203765D01*
X43998671Y-122212030D01*
X44020850Y-122222520D01*
X44041893Y-122235132D01*
X44061599Y-122249747D01*
X44079777Y-122266223D01*
X44096253Y-122284401D01*
X44110868Y-122304107D01*
X44123480Y-122325150D01*
X44133970Y-122347329D01*
X44142235Y-122370428D01*
X44148196Y-122394227D01*
X44151796Y-122418495D01*
X44153000Y-122442999D01*
X44153000Y-123683001D01*
X44151796Y-123707505D01*
X44148196Y-123731773D01*
X44142235Y-123755572D01*
X44133970Y-123778671D01*
X44123480Y-123800850D01*
X44110868Y-123821893D01*
X44096253Y-123841599D01*
X44079777Y-123859777D01*
X44061599Y-123876253D01*
X44041893Y-123890868D01*
X44020850Y-123903480D01*
X43998671Y-123913970D01*
X43975572Y-123922235D01*
X43951773Y-123928196D01*
X43927505Y-123931796D01*
X43903001Y-123933000D01*
X42202999Y-123933000D01*
X42178495Y-123931796D01*
X42154227Y-123928196D01*
X42130428Y-123922235D01*
X42107329Y-123913970D01*
X42085150Y-123903480D01*
X42064107Y-123890868D01*
X42044401Y-123876253D01*
X42026223Y-123859777D01*
X42009747Y-123841599D01*
X41995132Y-123821893D01*
X41982520Y-123800850D01*
X41972030Y-123778671D01*
X41963765Y-123755572D01*
X41957804Y-123731773D01*
X41954204Y-123707505D01*
X41953000Y-123683001D01*
X41953000Y-122442999D01*
X41954204Y-122418495D01*
X41957804Y-122394227D01*
X41963765Y-122370428D01*
X41972030Y-122347329D01*
X41982520Y-122325150D01*
X41995132Y-122304107D01*
X42009747Y-122284401D01*
X42026223Y-122266223D01*
X42044401Y-122249747D01*
X42064107Y-122235132D01*
X42085150Y-122222520D01*
X42107329Y-122212030D01*
X42130428Y-122203765D01*
X42154227Y-122197804D01*
X42178495Y-122194204D01*
X42202999Y-122193000D01*
X43903001Y-122193000D01*
X43927505Y-122194204D01*
G37*
G04 #@! TD.AperFunction*
D17*
X100711000Y-120523000D03*
G04 #@! TA.AperFunction,ComponentPad*
D14*
G36*
X101585505Y-122194204D02*
G01*
X101609773Y-122197804D01*
X101633572Y-122203765D01*
X101656671Y-122212030D01*
X101678850Y-122222520D01*
X101699893Y-122235132D01*
X101719599Y-122249747D01*
X101737777Y-122266223D01*
X101754253Y-122284401D01*
X101768868Y-122304107D01*
X101781480Y-122325150D01*
X101791970Y-122347329D01*
X101800235Y-122370428D01*
X101806196Y-122394227D01*
X101809796Y-122418495D01*
X101811000Y-122442999D01*
X101811000Y-123683001D01*
X101809796Y-123707505D01*
X101806196Y-123731773D01*
X101800235Y-123755572D01*
X101791970Y-123778671D01*
X101781480Y-123800850D01*
X101768868Y-123821893D01*
X101754253Y-123841599D01*
X101737777Y-123859777D01*
X101719599Y-123876253D01*
X101699893Y-123890868D01*
X101678850Y-123903480D01*
X101656671Y-123913970D01*
X101633572Y-123922235D01*
X101609773Y-123928196D01*
X101585505Y-123931796D01*
X101561001Y-123933000D01*
X99860999Y-123933000D01*
X99836495Y-123931796D01*
X99812227Y-123928196D01*
X99788428Y-123922235D01*
X99765329Y-123913970D01*
X99743150Y-123903480D01*
X99722107Y-123890868D01*
X99702401Y-123876253D01*
X99684223Y-123859777D01*
X99667747Y-123841599D01*
X99653132Y-123821893D01*
X99640520Y-123800850D01*
X99630030Y-123778671D01*
X99621765Y-123755572D01*
X99615804Y-123731773D01*
X99612204Y-123707505D01*
X99611000Y-123683001D01*
X99611000Y-122442999D01*
X99612204Y-122418495D01*
X99615804Y-122394227D01*
X99621765Y-122370428D01*
X99630030Y-122347329D01*
X99640520Y-122325150D01*
X99653132Y-122304107D01*
X99667747Y-122284401D01*
X99684223Y-122266223D01*
X99702401Y-122249747D01*
X99722107Y-122235132D01*
X99743150Y-122222520D01*
X99765329Y-122212030D01*
X99788428Y-122203765D01*
X99812227Y-122197804D01*
X99836495Y-122194204D01*
X99860999Y-122193000D01*
X101561001Y-122193000D01*
X101585505Y-122194204D01*
G37*
G04 #@! TD.AperFunction*
D17*
X149733000Y-96647000D03*
G04 #@! TA.AperFunction,ComponentPad*
D14*
G36*
X150607505Y-98318204D02*
G01*
X150631773Y-98321804D01*
X150655572Y-98327765D01*
X150678671Y-98336030D01*
X150700850Y-98346520D01*
X150721893Y-98359132D01*
X150741599Y-98373747D01*
X150759777Y-98390223D01*
X150776253Y-98408401D01*
X150790868Y-98428107D01*
X150803480Y-98449150D01*
X150813970Y-98471329D01*
X150822235Y-98494428D01*
X150828196Y-98518227D01*
X150831796Y-98542495D01*
X150833000Y-98566999D01*
X150833000Y-99807001D01*
X150831796Y-99831505D01*
X150828196Y-99855773D01*
X150822235Y-99879572D01*
X150813970Y-99902671D01*
X150803480Y-99924850D01*
X150790868Y-99945893D01*
X150776253Y-99965599D01*
X150759777Y-99983777D01*
X150741599Y-100000253D01*
X150721893Y-100014868D01*
X150700850Y-100027480D01*
X150678671Y-100037970D01*
X150655572Y-100046235D01*
X150631773Y-100052196D01*
X150607505Y-100055796D01*
X150583001Y-100057000D01*
X148882999Y-100057000D01*
X148858495Y-100055796D01*
X148834227Y-100052196D01*
X148810428Y-100046235D01*
X148787329Y-100037970D01*
X148765150Y-100027480D01*
X148744107Y-100014868D01*
X148724401Y-100000253D01*
X148706223Y-99983777D01*
X148689747Y-99965599D01*
X148675132Y-99945893D01*
X148662520Y-99924850D01*
X148652030Y-99902671D01*
X148643765Y-99879572D01*
X148637804Y-99855773D01*
X148634204Y-99831505D01*
X148633000Y-99807001D01*
X148633000Y-98566999D01*
X148634204Y-98542495D01*
X148637804Y-98518227D01*
X148643765Y-98494428D01*
X148652030Y-98471329D01*
X148662520Y-98449150D01*
X148675132Y-98428107D01*
X148689747Y-98408401D01*
X148706223Y-98390223D01*
X148724401Y-98373747D01*
X148744107Y-98359132D01*
X148765150Y-98346520D01*
X148787329Y-98336030D01*
X148810428Y-98327765D01*
X148834227Y-98321804D01*
X148858495Y-98318204D01*
X148882999Y-98317000D01*
X150583001Y-98317000D01*
X150607505Y-98318204D01*
G37*
G04 #@! TD.AperFunction*
D18*
X51689500Y-56578500D02*
X51689500Y-56325000D01*
D19*
X70802500Y-51625500D02*
X76263500Y-51625500D01*
D18*
X139580760Y-90114260D02*
X148653500Y-99187000D01*
X133280586Y-60388500D02*
X139580760Y-66688674D01*
X139580760Y-66688674D02*
X139580760Y-90114260D01*
X42599498Y-60388500D02*
X133280586Y-60388500D01*
X148653500Y-99187000D02*
X149733000Y-99187000D01*
X40109499Y-57898501D02*
X42599498Y-60388500D01*
X40109499Y-52891501D02*
X40109499Y-57898501D01*
X42859500Y-50141500D02*
X40109499Y-52891501D01*
X58420000Y-140793500D02*
X58420000Y-120523000D01*
X58420000Y-144843500D02*
X58420000Y-140793500D01*
X100711000Y-120523000D02*
X58420000Y-120523000D01*
X103811000Y-120523000D02*
X100711000Y-120523000D01*
X149733000Y-120523000D02*
X103811000Y-120523000D01*
X98110990Y-129911990D02*
X100711000Y-132512000D01*
X98110990Y-121718120D02*
X98110990Y-129911990D01*
X99306110Y-120523000D02*
X98110990Y-121718120D01*
X100711000Y-132512000D02*
X100711000Y-135382000D01*
X100711000Y-120523000D02*
X99306110Y-120523000D01*
X48069500Y-120523000D02*
X58420000Y-120523000D01*
X43053000Y-120523000D02*
X48069500Y-120523000D01*
X56331002Y-57150000D02*
X52584502Y-53403500D01*
X50536500Y-53403500D02*
X47274500Y-50141500D01*
X52584502Y-53403500D02*
X50536500Y-53403500D01*
X84010500Y-57150000D02*
X83883500Y-57023000D01*
X83883500Y-57023000D02*
X83883500Y-51625500D01*
X84010500Y-57150000D02*
X56331002Y-57150000D01*
X134747000Y-57150000D02*
X84010500Y-57150000D01*
X142557500Y-64960500D02*
X134747000Y-57150000D01*
X152333010Y-97842120D02*
X152226295Y-97735405D01*
X142557500Y-88138000D02*
X142557500Y-64960500D01*
X152226295Y-97735405D02*
X152333010Y-97628690D01*
X152333010Y-97628690D02*
X152333010Y-95665310D01*
X152333010Y-95665310D02*
X150944690Y-94276990D01*
X149733000Y-120523000D02*
X149733000Y-103131890D01*
X152333010Y-100531880D02*
X152333010Y-97842120D01*
X148696490Y-94276990D02*
X142557500Y-88138000D01*
X150944690Y-94276990D02*
X148696490Y-94276990D01*
X149733000Y-103131890D02*
X152333010Y-100531880D01*
M02*
