G04 #@! TF.GenerationSoftware,KiCad,Pcbnew,(5.1.5-0-10_14)*
G04 #@! TF.CreationDate,2020-10-31T12:06:31+01:00*
G04 #@! TF.ProjectId,ti99-psu,74693939-2d70-4737-952e-6b696361645f,rev?*
G04 #@! TF.SameCoordinates,Original*
G04 #@! TF.FileFunction,Legend,Top*
G04 #@! TF.FilePolarity,Positive*
%FSLAX46Y46*%
G04 Gerber Fmt 4.6, Leading zero omitted, Abs format (unit mm)*
G04 Created by KiCad (PCBNEW (5.1.5-0-10_14)) date 2020-10-31 12:06:31*
%MOMM*%
%LPD*%
G04 APERTURE LIST*
%ADD10C,0.300000*%
%ADD11C,0.203000*%
%ADD12C,0.120000*%
%ADD13C,0.150000*%
G04 APERTURE END LIST*
D10*
X114309428Y-141980071D02*
X115166571Y-141980071D01*
X114738000Y-143480071D02*
X114738000Y-141980071D01*
X115666571Y-143480071D02*
X115666571Y-141980071D01*
X116380857Y-142908642D02*
X117523714Y-142908642D01*
X118309428Y-143480071D02*
X118595142Y-143480071D01*
X118738000Y-143408642D01*
X118809428Y-143337214D01*
X118952285Y-143122928D01*
X119023714Y-142837214D01*
X119023714Y-142265785D01*
X118952285Y-142122928D01*
X118880857Y-142051500D01*
X118738000Y-141980071D01*
X118452285Y-141980071D01*
X118309428Y-142051500D01*
X118238000Y-142122928D01*
X118166571Y-142265785D01*
X118166571Y-142622928D01*
X118238000Y-142765785D01*
X118309428Y-142837214D01*
X118452285Y-142908642D01*
X118738000Y-142908642D01*
X118880857Y-142837214D01*
X118952285Y-142765785D01*
X119023714Y-142622928D01*
X119738000Y-143480071D02*
X120023714Y-143480071D01*
X120166571Y-143408642D01*
X120238000Y-143337214D01*
X120380857Y-143122928D01*
X120452285Y-142837214D01*
X120452285Y-142265785D01*
X120380857Y-142122928D01*
X120309428Y-142051500D01*
X120166571Y-141980071D01*
X119880857Y-141980071D01*
X119738000Y-142051500D01*
X119666571Y-142122928D01*
X119595142Y-142265785D01*
X119595142Y-142622928D01*
X119666571Y-142765785D01*
X119738000Y-142837214D01*
X119880857Y-142908642D01*
X120166571Y-142908642D01*
X120309428Y-142837214D01*
X120380857Y-142765785D01*
X120452285Y-142622928D01*
X122166571Y-141908642D02*
X120880857Y-143837214D01*
X123309428Y-142480071D02*
X123309428Y-143480071D01*
X122952285Y-141908642D02*
X122595142Y-142980071D01*
X123523714Y-142980071D01*
X124023714Y-143051500D02*
X124738000Y-143051500D01*
X123880857Y-143480071D02*
X124380857Y-141980071D01*
X124880857Y-143480071D01*
X126523714Y-143480071D02*
X126523714Y-141980071D01*
X127095142Y-141980071D01*
X127238000Y-142051500D01*
X127309428Y-142122928D01*
X127380857Y-142265785D01*
X127380857Y-142480071D01*
X127309428Y-142622928D01*
X127238000Y-142694357D01*
X127095142Y-142765785D01*
X126523714Y-142765785D01*
X127952285Y-143408642D02*
X128166571Y-143480071D01*
X128523714Y-143480071D01*
X128666571Y-143408642D01*
X128738000Y-143337214D01*
X128809428Y-143194357D01*
X128809428Y-143051500D01*
X128738000Y-142908642D01*
X128666571Y-142837214D01*
X128523714Y-142765785D01*
X128238000Y-142694357D01*
X128095142Y-142622928D01*
X128023714Y-142551500D01*
X127952285Y-142408642D01*
X127952285Y-142265785D01*
X128023714Y-142122928D01*
X128095142Y-142051500D01*
X128238000Y-141980071D01*
X128595142Y-141980071D01*
X128809428Y-142051500D01*
X129452285Y-141980071D02*
X129452285Y-143194357D01*
X129523714Y-143337214D01*
X129595142Y-143408642D01*
X129738000Y-143480071D01*
X130023714Y-143480071D01*
X130166571Y-143408642D01*
X130238000Y-143337214D01*
X130309428Y-143194357D01*
X130309428Y-141980071D01*
X132666571Y-142694357D02*
X132880857Y-142765785D01*
X132952285Y-142837214D01*
X133023714Y-142980071D01*
X133023714Y-143194357D01*
X132952285Y-143337214D01*
X132880857Y-143408642D01*
X132738000Y-143480071D01*
X132166571Y-143480071D01*
X132166571Y-141980071D01*
X132666571Y-141980071D01*
X132809428Y-142051500D01*
X132880857Y-142122928D01*
X132952285Y-142265785D01*
X132952285Y-142408642D01*
X132880857Y-142551500D01*
X132809428Y-142622928D01*
X132666571Y-142694357D01*
X132166571Y-142694357D01*
X133880857Y-143480071D02*
X133738000Y-143408642D01*
X133666571Y-143337214D01*
X133595142Y-143194357D01*
X133595142Y-142765785D01*
X133666571Y-142622928D01*
X133738000Y-142551500D01*
X133880857Y-142480071D01*
X134095142Y-142480071D01*
X134238000Y-142551500D01*
X134309428Y-142622928D01*
X134380857Y-142765785D01*
X134380857Y-143194357D01*
X134309428Y-143337214D01*
X134238000Y-143408642D01*
X134095142Y-143480071D01*
X133880857Y-143480071D01*
X135666571Y-143480071D02*
X135666571Y-142694357D01*
X135595142Y-142551500D01*
X135452285Y-142480071D01*
X135166571Y-142480071D01*
X135023714Y-142551500D01*
X135666571Y-143408642D02*
X135523714Y-143480071D01*
X135166571Y-143480071D01*
X135023714Y-143408642D01*
X134952285Y-143265785D01*
X134952285Y-143122928D01*
X135023714Y-142980071D01*
X135166571Y-142908642D01*
X135523714Y-142908642D01*
X135666571Y-142837214D01*
X136380857Y-143480071D02*
X136380857Y-142480071D01*
X136380857Y-142765785D02*
X136452285Y-142622928D01*
X136523714Y-142551500D01*
X136666571Y-142480071D01*
X136809428Y-142480071D01*
X137952285Y-143480071D02*
X137952285Y-141980071D01*
X137952285Y-143408642D02*
X137809428Y-143480071D01*
X137523714Y-143480071D01*
X137380857Y-143408642D01*
X137309428Y-143337214D01*
X137238000Y-143194357D01*
X137238000Y-142765785D01*
X137309428Y-142622928D01*
X137380857Y-142551500D01*
X137523714Y-142480071D01*
X137809428Y-142480071D01*
X137952285Y-142551500D01*
X112523714Y-144530071D02*
X113023714Y-146030071D01*
X113523714Y-144530071D01*
X114595142Y-145958642D02*
X114452285Y-146030071D01*
X114166571Y-146030071D01*
X114023714Y-145958642D01*
X113952285Y-145815785D01*
X113952285Y-145244357D01*
X114023714Y-145101500D01*
X114166571Y-145030071D01*
X114452285Y-145030071D01*
X114595142Y-145101500D01*
X114666571Y-145244357D01*
X114666571Y-145387214D01*
X113952285Y-145530071D01*
X115309428Y-146030071D02*
X115309428Y-145030071D01*
X115309428Y-145315785D02*
X115380857Y-145172928D01*
X115452285Y-145101500D01*
X115595142Y-145030071D01*
X115737999Y-145030071D01*
X116166571Y-145958642D02*
X116309428Y-146030071D01*
X116595142Y-146030071D01*
X116737999Y-145958642D01*
X116809428Y-145815785D01*
X116809428Y-145744357D01*
X116737999Y-145601500D01*
X116595142Y-145530071D01*
X116380857Y-145530071D01*
X116237999Y-145458642D01*
X116166571Y-145315785D01*
X116166571Y-145244357D01*
X116237999Y-145101500D01*
X116380857Y-145030071D01*
X116595142Y-145030071D01*
X116737999Y-145101500D01*
X117452285Y-146030071D02*
X117452285Y-145030071D01*
X117452285Y-144530071D02*
X117380857Y-144601500D01*
X117452285Y-144672928D01*
X117523714Y-144601500D01*
X117452285Y-144530071D01*
X117452285Y-144672928D01*
X118380857Y-146030071D02*
X118237999Y-145958642D01*
X118166571Y-145887214D01*
X118095142Y-145744357D01*
X118095142Y-145315785D01*
X118166571Y-145172928D01*
X118237999Y-145101500D01*
X118380857Y-145030071D01*
X118595142Y-145030071D01*
X118738000Y-145101500D01*
X118809428Y-145172928D01*
X118880857Y-145315785D01*
X118880857Y-145744357D01*
X118809428Y-145887214D01*
X118738000Y-145958642D01*
X118595142Y-146030071D01*
X118380857Y-146030071D01*
X119523714Y-145030071D02*
X119523714Y-146030071D01*
X119523714Y-145172928D02*
X119595142Y-145101500D01*
X119738000Y-145030071D01*
X119952285Y-145030071D01*
X120095142Y-145101500D01*
X120166571Y-145244357D01*
X120166571Y-146030071D01*
X122809428Y-146030071D02*
X121952285Y-146030071D01*
X122380857Y-146030071D02*
X122380857Y-144530071D01*
X122238000Y-144744357D01*
X122095142Y-144887214D01*
X121952285Y-144958642D01*
X123523714Y-145958642D02*
X123523714Y-146030071D01*
X123452285Y-146172928D01*
X123380857Y-146244357D01*
X125238000Y-144672928D02*
X125309428Y-144601500D01*
X125452285Y-144530071D01*
X125809428Y-144530071D01*
X125952285Y-144601500D01*
X126023714Y-144672928D01*
X126095142Y-144815785D01*
X126095142Y-144958642D01*
X126023714Y-145172928D01*
X125166571Y-146030071D01*
X126095142Y-146030071D01*
X127023714Y-144530071D02*
X127166571Y-144530071D01*
X127309428Y-144601500D01*
X127380857Y-144672928D01*
X127452285Y-144815785D01*
X127523714Y-145101500D01*
X127523714Y-145458642D01*
X127452285Y-145744357D01*
X127380857Y-145887214D01*
X127309428Y-145958642D01*
X127166571Y-146030071D01*
X127023714Y-146030071D01*
X126880857Y-145958642D01*
X126809428Y-145887214D01*
X126738000Y-145744357D01*
X126666571Y-145458642D01*
X126666571Y-145101500D01*
X126738000Y-144815785D01*
X126809428Y-144672928D01*
X126880857Y-144601500D01*
X127023714Y-144530071D01*
X128095142Y-144672928D02*
X128166571Y-144601500D01*
X128309428Y-144530071D01*
X128666571Y-144530071D01*
X128809428Y-144601500D01*
X128880857Y-144672928D01*
X128952285Y-144815785D01*
X128952285Y-144958642D01*
X128880857Y-145172928D01*
X128023714Y-146030071D01*
X128952285Y-146030071D01*
X129880857Y-144530071D02*
X130023714Y-144530071D01*
X130166571Y-144601500D01*
X130238000Y-144672928D01*
X130309428Y-144815785D01*
X130380857Y-145101500D01*
X130380857Y-145458642D01*
X130309428Y-145744357D01*
X130238000Y-145887214D01*
X130166571Y-145958642D01*
X130023714Y-146030071D01*
X129880857Y-146030071D01*
X129738000Y-145958642D01*
X129666571Y-145887214D01*
X129595142Y-145744357D01*
X129523714Y-145458642D01*
X129523714Y-145101500D01*
X129595142Y-144815785D01*
X129666571Y-144672928D01*
X129738000Y-144601500D01*
X129880857Y-144530071D01*
X131023714Y-145458642D02*
X132166571Y-145458642D01*
X133666571Y-146030071D02*
X132809428Y-146030071D01*
X133238000Y-146030071D02*
X133238000Y-144530071D01*
X133095142Y-144744357D01*
X132952285Y-144887214D01*
X132809428Y-144958642D01*
X134595142Y-144530071D02*
X134738000Y-144530071D01*
X134880857Y-144601500D01*
X134952285Y-144672928D01*
X135023714Y-144815785D01*
X135095142Y-145101500D01*
X135095142Y-145458642D01*
X135023714Y-145744357D01*
X134952285Y-145887214D01*
X134880857Y-145958642D01*
X134738000Y-146030071D01*
X134595142Y-146030071D01*
X134452285Y-145958642D01*
X134380857Y-145887214D01*
X134309428Y-145744357D01*
X134238000Y-145458642D01*
X134238000Y-145101500D01*
X134309428Y-144815785D01*
X134380857Y-144672928D01*
X134452285Y-144601500D01*
X134595142Y-144530071D01*
X135738000Y-145458642D02*
X136880857Y-145458642D01*
X137452285Y-144530071D02*
X138380857Y-144530071D01*
X137880857Y-145101500D01*
X138095142Y-145101500D01*
X138238000Y-145172928D01*
X138309428Y-145244357D01*
X138380857Y-145387214D01*
X138380857Y-145744357D01*
X138309428Y-145887214D01*
X138238000Y-145958642D01*
X138095142Y-146030071D01*
X137666571Y-146030071D01*
X137523714Y-145958642D01*
X137452285Y-145887214D01*
X139809428Y-146030071D02*
X138952285Y-146030071D01*
X139380857Y-146030071D02*
X139380857Y-144530071D01*
X139238000Y-144744357D01*
X139095142Y-144887214D01*
X138952285Y-144958642D01*
X105273714Y-147580071D02*
X105273714Y-148794357D01*
X105202285Y-148937214D01*
X105130857Y-149008642D01*
X104988000Y-149080071D01*
X104773714Y-149080071D01*
X104630857Y-149008642D01*
X105273714Y-148508642D02*
X105130857Y-148580071D01*
X104845142Y-148580071D01*
X104702285Y-148508642D01*
X104630857Y-148437214D01*
X104559428Y-148294357D01*
X104559428Y-147865785D01*
X104630857Y-147722928D01*
X104702285Y-147651500D01*
X104845142Y-147580071D01*
X105130857Y-147580071D01*
X105273714Y-147651500D01*
X105988000Y-148580071D02*
X105988000Y-147580071D01*
X105988000Y-147080071D02*
X105916571Y-147151500D01*
X105988000Y-147222928D01*
X106059428Y-147151500D01*
X105988000Y-147080071D01*
X105988000Y-147222928D01*
X106488000Y-147580071D02*
X107059428Y-147580071D01*
X106702285Y-147080071D02*
X106702285Y-148365785D01*
X106773714Y-148508642D01*
X106916571Y-148580071D01*
X107059428Y-148580071D01*
X108488000Y-147865785D02*
X108416571Y-147794357D01*
X108273714Y-147722928D01*
X108130857Y-147722928D01*
X107988000Y-147794357D01*
X107916571Y-147865785D01*
X107845142Y-148008642D01*
X107845142Y-148151500D01*
X107916571Y-148294357D01*
X107988000Y-148365785D01*
X108130857Y-148437214D01*
X108273714Y-148437214D01*
X108416571Y-148365785D01*
X108488000Y-148294357D01*
X108488000Y-147722928D02*
X108488000Y-148294357D01*
X108559428Y-148365785D01*
X108630857Y-148365785D01*
X108773714Y-148294357D01*
X108845142Y-148151500D01*
X108845142Y-147794357D01*
X108702285Y-147580071D01*
X108488000Y-147437214D01*
X108202285Y-147365785D01*
X107916571Y-147437214D01*
X107702285Y-147580071D01*
X107559428Y-147794357D01*
X107488000Y-148080071D01*
X107559428Y-148365785D01*
X107702285Y-148580071D01*
X107916571Y-148722928D01*
X108202285Y-148794357D01*
X108488000Y-148722928D01*
X108702285Y-148580071D01*
X110130857Y-147580071D02*
X110130857Y-148794357D01*
X110059428Y-148937214D01*
X109988000Y-149008642D01*
X109845142Y-149080071D01*
X109630857Y-149080071D01*
X109488000Y-149008642D01*
X110130857Y-148508642D02*
X109988000Y-148580071D01*
X109702285Y-148580071D01*
X109559428Y-148508642D01*
X109488000Y-148437214D01*
X109416571Y-148294357D01*
X109416571Y-147865785D01*
X109488000Y-147722928D01*
X109559428Y-147651500D01*
X109702285Y-147580071D01*
X109988000Y-147580071D01*
X110130857Y-147651500D01*
X110845142Y-148580071D02*
X110845142Y-147580071D01*
X110845142Y-147080071D02*
X110773714Y-147151500D01*
X110845142Y-147222928D01*
X110916571Y-147151500D01*
X110845142Y-147080071D01*
X110845142Y-147222928D01*
X111345142Y-147580071D02*
X111916571Y-147580071D01*
X111559428Y-147080071D02*
X111559428Y-148365785D01*
X111630857Y-148508642D01*
X111773714Y-148580071D01*
X111916571Y-148580071D01*
X112416571Y-148580071D02*
X112416571Y-147080071D01*
X113059428Y-148580071D02*
X113059428Y-147794357D01*
X112988000Y-147651500D01*
X112845142Y-147580071D01*
X112630857Y-147580071D01*
X112488000Y-147651500D01*
X112416571Y-147722928D01*
X114416571Y-147580071D02*
X114416571Y-148580071D01*
X113773714Y-147580071D02*
X113773714Y-148365785D01*
X113845142Y-148508642D01*
X113988000Y-148580071D01*
X114202285Y-148580071D01*
X114345142Y-148508642D01*
X114416571Y-148437214D01*
X115130857Y-148580071D02*
X115130857Y-147080071D01*
X115130857Y-147651500D02*
X115273714Y-147580071D01*
X115559428Y-147580071D01*
X115702285Y-147651500D01*
X115773714Y-147722928D01*
X115845142Y-147865785D01*
X115845142Y-148294357D01*
X115773714Y-148437214D01*
X115702285Y-148508642D01*
X115559428Y-148580071D01*
X115273714Y-148580071D01*
X115130857Y-148508642D01*
X116488000Y-148437214D02*
X116559428Y-148508642D01*
X116488000Y-148580071D01*
X116416571Y-148508642D01*
X116488000Y-148437214D01*
X116488000Y-148580071D01*
X117845142Y-148508642D02*
X117702285Y-148580071D01*
X117416571Y-148580071D01*
X117273714Y-148508642D01*
X117202285Y-148437214D01*
X117130857Y-148294357D01*
X117130857Y-147865785D01*
X117202285Y-147722928D01*
X117273714Y-147651500D01*
X117416571Y-147580071D01*
X117702285Y-147580071D01*
X117845142Y-147651500D01*
X118702285Y-148580071D02*
X118559428Y-148508642D01*
X118488000Y-148437214D01*
X118416571Y-148294357D01*
X118416571Y-147865785D01*
X118488000Y-147722928D01*
X118559428Y-147651500D01*
X118702285Y-147580071D01*
X118916571Y-147580071D01*
X119059428Y-147651500D01*
X119130857Y-147722928D01*
X119202285Y-147865785D01*
X119202285Y-148294357D01*
X119130857Y-148437214D01*
X119059428Y-148508642D01*
X118916571Y-148580071D01*
X118702285Y-148580071D01*
X119845142Y-148580071D02*
X119845142Y-147580071D01*
X119845142Y-147722928D02*
X119916571Y-147651500D01*
X120059428Y-147580071D01*
X120273714Y-147580071D01*
X120416571Y-147651500D01*
X120488000Y-147794357D01*
X120488000Y-148580071D01*
X120488000Y-147794357D02*
X120559428Y-147651500D01*
X120702285Y-147580071D01*
X120916571Y-147580071D01*
X121059428Y-147651500D01*
X121130857Y-147794357D01*
X121130857Y-148580071D01*
X121845142Y-148437214D02*
X121916571Y-148508642D01*
X121845142Y-148580071D01*
X121773714Y-148508642D01*
X121845142Y-148437214D01*
X121845142Y-148580071D01*
X121845142Y-147651500D02*
X121916571Y-147722928D01*
X121845142Y-147794357D01*
X121773714Y-147722928D01*
X121845142Y-147651500D01*
X121845142Y-147794357D01*
X122559428Y-148580071D02*
X122559428Y-147080071D01*
X123202285Y-148580071D02*
X123202285Y-147794357D01*
X123130857Y-147651500D01*
X122988000Y-147580071D01*
X122773714Y-147580071D01*
X122630857Y-147651500D01*
X122559428Y-147722928D01*
X124559428Y-148580071D02*
X124559428Y-147794357D01*
X124488000Y-147651500D01*
X124345142Y-147580071D01*
X124059428Y-147580071D01*
X123916571Y-147651500D01*
X124559428Y-148508642D02*
X124416571Y-148580071D01*
X124059428Y-148580071D01*
X123916571Y-148508642D01*
X123845142Y-148365785D01*
X123845142Y-148222928D01*
X123916571Y-148080071D01*
X124059428Y-148008642D01*
X124416571Y-148008642D01*
X124559428Y-147937214D01*
X125273714Y-147580071D02*
X125273714Y-148580071D01*
X125273714Y-147722928D02*
X125345142Y-147651500D01*
X125488000Y-147580071D01*
X125702285Y-147580071D01*
X125845142Y-147651500D01*
X125916571Y-147794357D01*
X125916571Y-148580071D01*
X126559428Y-148508642D02*
X126702285Y-148580071D01*
X126988000Y-148580071D01*
X127130857Y-148508642D01*
X127202285Y-148365785D01*
X127202285Y-148294357D01*
X127130857Y-148151500D01*
X126988000Y-148080071D01*
X126773714Y-148080071D01*
X126630857Y-148008642D01*
X126559428Y-147865785D01*
X126559428Y-147794357D01*
X126630857Y-147651500D01*
X126773714Y-147580071D01*
X126988000Y-147580071D01*
X127130857Y-147651500D01*
X127845142Y-148580071D02*
X127845142Y-147080071D01*
X128488000Y-148580071D02*
X128488000Y-147794357D01*
X128416571Y-147651500D01*
X128273714Y-147580071D01*
X128059428Y-147580071D01*
X127916571Y-147651500D01*
X127845142Y-147722928D01*
X129845142Y-147580071D02*
X129845142Y-148580071D01*
X129202285Y-147580071D02*
X129202285Y-148365785D01*
X129273714Y-148508642D01*
X129416571Y-148580071D01*
X129630857Y-148580071D01*
X129773714Y-148508642D01*
X129845142Y-148437214D01*
X131130857Y-148508642D02*
X130988000Y-148580071D01*
X130702285Y-148580071D01*
X130559428Y-148508642D01*
X130488000Y-148365785D01*
X130488000Y-147794357D01*
X130559428Y-147651500D01*
X130702285Y-147580071D01*
X130988000Y-147580071D01*
X131130857Y-147651500D01*
X131202285Y-147794357D01*
X131202285Y-147937214D01*
X130488000Y-148080071D01*
X131845142Y-148580071D02*
X131845142Y-147080071D01*
X131845142Y-147651500D02*
X131988000Y-147580071D01*
X132273714Y-147580071D01*
X132416571Y-147651500D01*
X132488000Y-147722928D01*
X132559428Y-147865785D01*
X132559428Y-148294357D01*
X132488000Y-148437214D01*
X132416571Y-148508642D01*
X132273714Y-148580071D01*
X131988000Y-148580071D01*
X131845142Y-148508642D01*
X133202285Y-147580071D02*
X133202285Y-148580071D01*
X133202285Y-147722928D02*
X133273714Y-147651500D01*
X133416571Y-147580071D01*
X133630857Y-147580071D01*
X133773714Y-147651500D01*
X133845142Y-147794357D01*
X133845142Y-148580071D01*
X135130857Y-148508642D02*
X134988000Y-148580071D01*
X134702285Y-148580071D01*
X134559428Y-148508642D01*
X134488000Y-148365785D01*
X134488000Y-147794357D01*
X134559428Y-147651500D01*
X134702285Y-147580071D01*
X134988000Y-147580071D01*
X135130857Y-147651500D01*
X135202285Y-147794357D01*
X135202285Y-147937214D01*
X134488000Y-148080071D01*
X135845142Y-148580071D02*
X135845142Y-147580071D01*
X135845142Y-147865785D02*
X135916571Y-147722928D01*
X135988000Y-147651500D01*
X136130857Y-147580071D01*
X136273714Y-147580071D01*
X137845142Y-147008642D02*
X136559428Y-148937214D01*
X138130857Y-147580071D02*
X138702285Y-147580071D01*
X138345142Y-147080071D02*
X138345142Y-148365785D01*
X138416571Y-148508642D01*
X138559428Y-148580071D01*
X138702285Y-148580071D01*
X139202285Y-148580071D02*
X139202285Y-147580071D01*
X139202285Y-147080071D02*
X139130857Y-147151500D01*
X139202285Y-147222928D01*
X139273714Y-147151500D01*
X139202285Y-147080071D01*
X139202285Y-147222928D01*
X139988000Y-148580071D02*
X140273714Y-148580071D01*
X140416571Y-148508642D01*
X140488000Y-148437214D01*
X140630857Y-148222928D01*
X140702285Y-147937214D01*
X140702285Y-147365785D01*
X140630857Y-147222928D01*
X140559428Y-147151500D01*
X140416571Y-147080071D01*
X140130857Y-147080071D01*
X139988000Y-147151500D01*
X139916571Y-147222928D01*
X139845142Y-147365785D01*
X139845142Y-147722928D01*
X139916571Y-147865785D01*
X139988000Y-147937214D01*
X140130857Y-148008642D01*
X140416571Y-148008642D01*
X140559428Y-147937214D01*
X140630857Y-147865785D01*
X140702285Y-147722928D01*
X141416571Y-148580071D02*
X141702285Y-148580071D01*
X141845142Y-148508642D01*
X141916571Y-148437214D01*
X142059428Y-148222928D01*
X142130857Y-147937214D01*
X142130857Y-147365785D01*
X142059428Y-147222928D01*
X141988000Y-147151500D01*
X141845142Y-147080071D01*
X141559428Y-147080071D01*
X141416571Y-147151500D01*
X141345142Y-147222928D01*
X141273714Y-147365785D01*
X141273714Y-147722928D01*
X141345142Y-147865785D01*
X141416571Y-147937214D01*
X141559428Y-148008642D01*
X141845142Y-148008642D01*
X141988000Y-147937214D01*
X142059428Y-147865785D01*
X142130857Y-147722928D01*
X142773714Y-148008642D02*
X143916571Y-148008642D01*
X144630857Y-147580071D02*
X144630857Y-149080071D01*
X144630857Y-147651500D02*
X144773714Y-147580071D01*
X145059428Y-147580071D01*
X145202285Y-147651500D01*
X145273714Y-147722928D01*
X145345142Y-147865785D01*
X145345142Y-148294357D01*
X145273714Y-148437214D01*
X145202285Y-148508642D01*
X145059428Y-148580071D01*
X144773714Y-148580071D01*
X144630857Y-148508642D01*
X145916571Y-148508642D02*
X146059428Y-148580071D01*
X146345142Y-148580071D01*
X146488000Y-148508642D01*
X146559428Y-148365785D01*
X146559428Y-148294357D01*
X146488000Y-148151500D01*
X146345142Y-148080071D01*
X146130857Y-148080071D01*
X145988000Y-148008642D01*
X145916571Y-147865785D01*
X145916571Y-147794357D01*
X145988000Y-147651500D01*
X146130857Y-147580071D01*
X146345142Y-147580071D01*
X146488000Y-147651500D01*
X147845142Y-147580071D02*
X147845142Y-148580071D01*
X147202285Y-147580071D02*
X147202285Y-148365785D01*
X147273714Y-148508642D01*
X147416571Y-148580071D01*
X147630857Y-148580071D01*
X147773714Y-148508642D01*
X147845142Y-148437214D01*
D11*
X66682928Y-137869454D02*
X66682928Y-137107550D01*
X67063880Y-137488502D02*
X66301976Y-137488502D01*
X66063880Y-136155169D02*
X66063880Y-136631359D01*
X66540071Y-136678978D01*
X66492452Y-136631359D01*
X66444833Y-136536121D01*
X66444833Y-136298026D01*
X66492452Y-136202788D01*
X66540071Y-136155169D01*
X66635309Y-136107550D01*
X66873404Y-136107550D01*
X66968642Y-136155169D01*
X67016261Y-136202788D01*
X67063880Y-136298026D01*
X67063880Y-136536121D01*
X67016261Y-136631359D01*
X66968642Y-136678978D01*
X66063880Y-135821835D02*
X67063880Y-135488502D01*
X66063880Y-135155169D01*
X58846928Y-138004454D02*
X58846928Y-137242550D01*
X59227880Y-137623502D02*
X58465976Y-137623502D01*
X59227880Y-136242550D02*
X59227880Y-136813978D01*
X59227880Y-136528264D02*
X58227880Y-136528264D01*
X58370738Y-136623502D01*
X58465976Y-136718740D01*
X58513595Y-136813978D01*
X58323119Y-135861597D02*
X58275500Y-135813978D01*
X58227880Y-135718740D01*
X58227880Y-135480645D01*
X58275500Y-135385407D01*
X58323119Y-135337788D01*
X58418357Y-135290169D01*
X58513595Y-135290169D01*
X58656452Y-135337788D01*
X59227880Y-135909216D01*
X59227880Y-135290169D01*
X58227880Y-135004454D02*
X59227880Y-134671121D01*
X58227880Y-134337788D01*
X62212500Y-136979645D02*
X62164880Y-137074883D01*
X62164880Y-137217740D01*
X62212500Y-137360597D01*
X62307738Y-137455835D01*
X62402976Y-137503454D01*
X62593452Y-137551073D01*
X62736309Y-137551073D01*
X62926785Y-137503454D01*
X63022023Y-137455835D01*
X63117261Y-137360597D01*
X63164880Y-137217740D01*
X63164880Y-137122502D01*
X63117261Y-136979645D01*
X63069642Y-136932026D01*
X62736309Y-136932026D01*
X62736309Y-137122502D01*
X63164880Y-136503454D02*
X62164880Y-136503454D01*
X63164880Y-135932026D01*
X62164880Y-135932026D01*
X63164880Y-135455835D02*
X62164880Y-135455835D01*
X62164880Y-135217740D01*
X62212500Y-135074883D01*
X62307738Y-134979645D01*
X62402976Y-134932026D01*
X62593452Y-134884407D01*
X62736309Y-134884407D01*
X62926785Y-134932026D01*
X63022023Y-134979645D01*
X63117261Y-135074883D01*
X63164880Y-135217740D01*
X63164880Y-135455835D01*
X54490928Y-137742454D02*
X54490928Y-136980550D01*
X53871880Y-136028169D02*
X53871880Y-136504359D01*
X54348071Y-136551978D01*
X54300452Y-136504359D01*
X54252833Y-136409121D01*
X54252833Y-136171026D01*
X54300452Y-136075788D01*
X54348071Y-136028169D01*
X54443309Y-135980550D01*
X54681404Y-135980550D01*
X54776642Y-136028169D01*
X54824261Y-136075788D01*
X54871880Y-136171026D01*
X54871880Y-136409121D01*
X54824261Y-136504359D01*
X54776642Y-136551978D01*
X53871880Y-135694835D02*
X54871880Y-135361502D01*
X53871880Y-135028169D01*
X65838545Y-52712928D02*
X66600450Y-52712928D01*
X66219497Y-53093880D02*
X66219497Y-52331976D01*
D12*
X72092500Y-53170500D02*
X72092500Y-50080500D01*
X72032500Y-51625500D02*
G75*
G03X72032500Y-51625500I-2500000J0D01*
G01*
X66542500Y-51625962D02*
G75*
G02X72092500Y-50080670I2990000J462D01*
G01*
X66542500Y-51625038D02*
G75*
G03X72092500Y-53170330I2990000J-462D01*
G01*
X53660000Y-149463500D02*
X53660000Y-150063500D01*
X55260000Y-149463500D02*
X53660000Y-149463500D01*
X55260000Y-150063500D02*
X55260000Y-149463500D01*
X57620000Y-149463500D02*
X57620000Y-150063500D01*
X59220000Y-149463500D02*
X57620000Y-149463500D01*
X59220000Y-150063500D02*
X59220000Y-149463500D01*
X61580000Y-149463500D02*
X61580000Y-150063500D01*
X63180000Y-149463500D02*
X61580000Y-149463500D01*
X63180000Y-150063500D02*
X63180000Y-149463500D01*
X65540000Y-149463500D02*
X65540000Y-150063500D01*
X67140000Y-149463500D02*
X65540000Y-149463500D01*
X67140000Y-150063500D02*
X67140000Y-149463500D01*
X54460000Y-142503500D02*
X54460000Y-140833500D01*
X66340000Y-142503500D02*
X54460000Y-142503500D01*
X66340000Y-140833500D02*
X66340000Y-142503500D01*
X54460000Y-140833500D02*
X54460000Y-139833500D01*
X66340000Y-140833500D02*
X54460000Y-140833500D01*
X66340000Y-139833500D02*
X66340000Y-140833500D01*
X68650000Y-146843500D02*
X68650000Y-142843500D01*
X68360000Y-140838500D02*
X68360000Y-150063500D01*
X66455000Y-140838500D02*
X68360000Y-140838500D01*
X66455000Y-139833500D02*
X66455000Y-140838500D01*
X54345000Y-139833500D02*
X66455000Y-139833500D01*
X54345000Y-140838500D02*
X54345000Y-139833500D01*
X52440000Y-140838500D02*
X54345000Y-140838500D01*
X52440000Y-150063500D02*
X52440000Y-140838500D01*
X68360000Y-150063500D02*
X52440000Y-150063500D01*
X83343500Y-52995500D02*
X83343500Y-52665500D01*
X76803500Y-52995500D02*
X83343500Y-52995500D01*
X76803500Y-52665500D02*
X76803500Y-52995500D01*
X83343500Y-50255500D02*
X83343500Y-50585500D01*
X76803500Y-50255500D02*
X83343500Y-50255500D01*
X76803500Y-50585500D02*
X76803500Y-50255500D01*
X98281000Y-134582000D02*
X97681000Y-134582000D01*
X98281000Y-136182000D02*
X98281000Y-134582000D01*
X97681000Y-136182000D02*
X98281000Y-136182000D01*
X98281000Y-137122000D02*
X97681000Y-137122000D01*
X98281000Y-138722000D02*
X98281000Y-137122000D01*
X97681000Y-138722000D02*
X98281000Y-138722000D01*
X103701000Y-135632000D02*
X102701000Y-135632000D01*
X103701000Y-137672000D02*
X102701000Y-137672000D01*
X102171000Y-135632000D02*
X102701000Y-135382000D01*
X102171000Y-137672000D02*
X102171000Y-135632000D01*
X102701000Y-137922000D02*
X102171000Y-137672000D01*
X102701000Y-135382000D02*
X103701000Y-135382000D01*
X102701000Y-137922000D02*
X102701000Y-135382000D01*
X103701000Y-137922000D02*
X102701000Y-137922000D01*
X98711000Y-139592000D02*
X102711000Y-139592000D01*
X97681000Y-134002000D02*
X97681000Y-139302000D01*
X103701000Y-134002000D02*
X97681000Y-134002000D01*
X103701000Y-139302000D02*
X103701000Y-134002000D01*
X97681000Y-139302000D02*
X103701000Y-139302000D01*
X147303000Y-119723000D02*
X146703000Y-119723000D01*
X147303000Y-121323000D02*
X147303000Y-119723000D01*
X146703000Y-121323000D02*
X147303000Y-121323000D01*
X147303000Y-122263000D02*
X146703000Y-122263000D01*
X147303000Y-123863000D02*
X147303000Y-122263000D01*
X146703000Y-123863000D02*
X147303000Y-123863000D01*
X152723000Y-120773000D02*
X151723000Y-120773000D01*
X152723000Y-122813000D02*
X151723000Y-122813000D01*
X151193000Y-120773000D02*
X151723000Y-120523000D01*
X151193000Y-122813000D02*
X151193000Y-120773000D01*
X151723000Y-123063000D02*
X151193000Y-122813000D01*
X151723000Y-120523000D02*
X152723000Y-120523000D01*
X151723000Y-123063000D02*
X151723000Y-120523000D01*
X152723000Y-123063000D02*
X151723000Y-123063000D01*
X147733000Y-124733000D02*
X151733000Y-124733000D01*
X146703000Y-119143000D02*
X146703000Y-124443000D01*
X152723000Y-119143000D02*
X146703000Y-119143000D01*
X152723000Y-124443000D02*
X152723000Y-119143000D01*
X146703000Y-124443000D02*
X152723000Y-124443000D01*
X40623000Y-119723000D02*
X40023000Y-119723000D01*
X40623000Y-121323000D02*
X40623000Y-119723000D01*
X40023000Y-121323000D02*
X40623000Y-121323000D01*
X40623000Y-122263000D02*
X40023000Y-122263000D01*
X40623000Y-123863000D02*
X40623000Y-122263000D01*
X40023000Y-123863000D02*
X40623000Y-123863000D01*
X46043000Y-120773000D02*
X45043000Y-120773000D01*
X46043000Y-122813000D02*
X45043000Y-122813000D01*
X44513000Y-120773000D02*
X45043000Y-120523000D01*
X44513000Y-122813000D02*
X44513000Y-120773000D01*
X45043000Y-123063000D02*
X44513000Y-122813000D01*
X45043000Y-120523000D02*
X46043000Y-120523000D01*
X45043000Y-123063000D02*
X45043000Y-120523000D01*
X46043000Y-123063000D02*
X45043000Y-123063000D01*
X41053000Y-124733000D02*
X45053000Y-124733000D01*
X40023000Y-119143000D02*
X40023000Y-124443000D01*
X46043000Y-119143000D02*
X40023000Y-119143000D01*
X46043000Y-124443000D02*
X46043000Y-119143000D01*
X40023000Y-124443000D02*
X46043000Y-124443000D01*
X98281000Y-119723000D02*
X97681000Y-119723000D01*
X98281000Y-121323000D02*
X98281000Y-119723000D01*
X97681000Y-121323000D02*
X98281000Y-121323000D01*
X98281000Y-122263000D02*
X97681000Y-122263000D01*
X98281000Y-123863000D02*
X98281000Y-122263000D01*
X97681000Y-123863000D02*
X98281000Y-123863000D01*
X103701000Y-120773000D02*
X102701000Y-120773000D01*
X103701000Y-122813000D02*
X102701000Y-122813000D01*
X102171000Y-120773000D02*
X102701000Y-120523000D01*
X102171000Y-122813000D02*
X102171000Y-120773000D01*
X102701000Y-123063000D02*
X102171000Y-122813000D01*
X102701000Y-120523000D02*
X103701000Y-120523000D01*
X102701000Y-123063000D02*
X102701000Y-120523000D01*
X103701000Y-123063000D02*
X102701000Y-123063000D01*
X98711000Y-124733000D02*
X102711000Y-124733000D01*
X97681000Y-119143000D02*
X97681000Y-124443000D01*
X103701000Y-119143000D02*
X97681000Y-119143000D01*
X103701000Y-124443000D02*
X103701000Y-119143000D01*
X97681000Y-124443000D02*
X103701000Y-124443000D01*
X147303000Y-95847000D02*
X146703000Y-95847000D01*
X147303000Y-97447000D02*
X147303000Y-95847000D01*
X146703000Y-97447000D02*
X147303000Y-97447000D01*
X147303000Y-98387000D02*
X146703000Y-98387000D01*
X147303000Y-99987000D02*
X147303000Y-98387000D01*
X146703000Y-99987000D02*
X147303000Y-99987000D01*
X152723000Y-96897000D02*
X151723000Y-96897000D01*
X152723000Y-98937000D02*
X151723000Y-98937000D01*
X151193000Y-96897000D02*
X151723000Y-96647000D01*
X151193000Y-98937000D02*
X151193000Y-96897000D01*
X151723000Y-99187000D02*
X151193000Y-98937000D01*
X151723000Y-96647000D02*
X152723000Y-96647000D01*
X151723000Y-99187000D02*
X151723000Y-96647000D01*
X152723000Y-99187000D02*
X151723000Y-99187000D01*
X147733000Y-100857000D02*
X151733000Y-100857000D01*
X146703000Y-95267000D02*
X146703000Y-100567000D01*
X152723000Y-95267000D02*
X146703000Y-95267000D01*
X152723000Y-100567000D02*
X152723000Y-95267000D01*
X146703000Y-100567000D02*
X152723000Y-100567000D01*
D13*
X68762642Y-56522880D02*
X68286452Y-56522880D01*
X68286452Y-55522880D01*
X69095976Y-55999071D02*
X69429309Y-55999071D01*
X69572166Y-56522880D02*
X69095976Y-56522880D01*
X69095976Y-55522880D01*
X69572166Y-55522880D01*
X70000738Y-56522880D02*
X70000738Y-55522880D01*
X70238833Y-55522880D01*
X70381690Y-55570500D01*
X70476928Y-55665738D01*
X70524547Y-55760976D01*
X70572166Y-55951452D01*
X70572166Y-56094309D01*
X70524547Y-56284785D01*
X70476928Y-56380023D01*
X70381690Y-56475261D01*
X70238833Y-56522880D01*
X70000738Y-56522880D01*
X44021761Y-60221761D02*
X44164619Y-60269380D01*
X44402714Y-60269380D01*
X44497952Y-60221761D01*
X44545571Y-60174142D01*
X44593190Y-60078904D01*
X44593190Y-59983666D01*
X44545571Y-59888428D01*
X44497952Y-59840809D01*
X44402714Y-59793190D01*
X44212238Y-59745571D01*
X44117000Y-59697952D01*
X44069380Y-59650333D01*
X44021761Y-59555095D01*
X44021761Y-59459857D01*
X44069380Y-59364619D01*
X44117000Y-59317000D01*
X44212238Y-59269380D01*
X44450333Y-59269380D01*
X44593190Y-59317000D01*
X44926523Y-59269380D02*
X45164619Y-60269380D01*
X45355095Y-59555095D01*
X45545571Y-60269380D01*
X45783666Y-59269380D01*
X45926523Y-60364619D02*
X46688428Y-60364619D01*
X46926523Y-60269380D02*
X46926523Y-59269380D01*
X47164619Y-59269380D01*
X47307476Y-59317000D01*
X47402714Y-59412238D01*
X47450333Y-59507476D01*
X47497952Y-59697952D01*
X47497952Y-59840809D01*
X47450333Y-60031285D01*
X47402714Y-60126523D01*
X47307476Y-60221761D01*
X47164619Y-60269380D01*
X46926523Y-60269380D01*
X47926523Y-60269380D02*
X47926523Y-59269380D01*
X48307476Y-59269380D01*
X48402714Y-59317000D01*
X48450333Y-59364619D01*
X48497952Y-59459857D01*
X48497952Y-59602714D01*
X48450333Y-59697952D01*
X48402714Y-59745571D01*
X48307476Y-59793190D01*
X47926523Y-59793190D01*
X48878904Y-60221761D02*
X49021761Y-60269380D01*
X49259857Y-60269380D01*
X49355095Y-60221761D01*
X49402714Y-60174142D01*
X49450333Y-60078904D01*
X49450333Y-59983666D01*
X49402714Y-59888428D01*
X49355095Y-59840809D01*
X49259857Y-59793190D01*
X49069380Y-59745571D01*
X48974142Y-59697952D01*
X48926523Y-59650333D01*
X48878904Y-59555095D01*
X48878904Y-59459857D01*
X48926523Y-59364619D01*
X48974142Y-59317000D01*
X49069380Y-59269380D01*
X49307476Y-59269380D01*
X49450333Y-59317000D01*
X49736047Y-59269380D02*
X50307476Y-59269380D01*
X50021761Y-60269380D02*
X50021761Y-59269380D01*
X54586952Y-151534880D02*
X55158380Y-151534880D01*
X54872666Y-152534880D02*
X54872666Y-151534880D01*
X55491714Y-152534880D02*
X55491714Y-151534880D01*
X55967904Y-152153928D02*
X56729809Y-152153928D01*
X57253619Y-152534880D02*
X57444095Y-152534880D01*
X57539333Y-152487261D01*
X57586952Y-152439642D01*
X57682190Y-152296785D01*
X57729809Y-152106309D01*
X57729809Y-151725357D01*
X57682190Y-151630119D01*
X57634571Y-151582500D01*
X57539333Y-151534880D01*
X57348857Y-151534880D01*
X57253619Y-151582500D01*
X57206000Y-151630119D01*
X57158380Y-151725357D01*
X57158380Y-151963452D01*
X57206000Y-152058690D01*
X57253619Y-152106309D01*
X57348857Y-152153928D01*
X57539333Y-152153928D01*
X57634571Y-152106309D01*
X57682190Y-152058690D01*
X57729809Y-151963452D01*
X58206000Y-152534880D02*
X58396476Y-152534880D01*
X58491714Y-152487261D01*
X58539333Y-152439642D01*
X58634571Y-152296785D01*
X58682190Y-152106309D01*
X58682190Y-151725357D01*
X58634571Y-151630119D01*
X58586952Y-151582500D01*
X58491714Y-151534880D01*
X58301238Y-151534880D01*
X58206000Y-151582500D01*
X58158380Y-151630119D01*
X58110761Y-151725357D01*
X58110761Y-151963452D01*
X58158380Y-152058690D01*
X58206000Y-152106309D01*
X58301238Y-152153928D01*
X58491714Y-152153928D01*
X58586952Y-152106309D01*
X58634571Y-152058690D01*
X58682190Y-151963452D01*
X59825047Y-151487261D02*
X58967904Y-152772976D01*
X60586952Y-151868214D02*
X60586952Y-152534880D01*
X60348857Y-151487261D02*
X60110761Y-152201547D01*
X60729809Y-152201547D01*
X61063142Y-152249166D02*
X61539333Y-152249166D01*
X60967904Y-152534880D02*
X61301238Y-151534880D01*
X61634571Y-152534880D01*
X62729809Y-152534880D02*
X62729809Y-151534880D01*
X63110761Y-151534880D01*
X63206000Y-151582500D01*
X63253619Y-151630119D01*
X63301238Y-151725357D01*
X63301238Y-151868214D01*
X63253619Y-151963452D01*
X63206000Y-152011071D01*
X63110761Y-152058690D01*
X62729809Y-152058690D01*
X63872666Y-152534880D02*
X63777428Y-152487261D01*
X63729809Y-152439642D01*
X63682190Y-152344404D01*
X63682190Y-152058690D01*
X63729809Y-151963452D01*
X63777428Y-151915833D01*
X63872666Y-151868214D01*
X64015523Y-151868214D01*
X64110761Y-151915833D01*
X64158380Y-151963452D01*
X64206000Y-152058690D01*
X64206000Y-152344404D01*
X64158380Y-152439642D01*
X64110761Y-152487261D01*
X64015523Y-152534880D01*
X63872666Y-152534880D01*
X64539333Y-151868214D02*
X64729809Y-152534880D01*
X64920285Y-152058690D01*
X65110761Y-152534880D01*
X65301238Y-151868214D01*
X66063142Y-152487261D02*
X65967904Y-152534880D01*
X65777428Y-152534880D01*
X65682190Y-152487261D01*
X65634571Y-152392023D01*
X65634571Y-152011071D01*
X65682190Y-151915833D01*
X65777428Y-151868214D01*
X65967904Y-151868214D01*
X66063142Y-151915833D01*
X66110761Y-152011071D01*
X66110761Y-152106309D01*
X65634571Y-152201547D01*
X66539333Y-152534880D02*
X66539333Y-151868214D01*
X66539333Y-152058690D02*
X66586952Y-151963452D01*
X66634571Y-151915833D01*
X66729809Y-151868214D01*
X66825047Y-151868214D01*
X78787785Y-53617880D02*
X78311595Y-53617880D01*
X78263976Y-54094071D01*
X78311595Y-54046452D01*
X78406833Y-53998833D01*
X78644928Y-53998833D01*
X78740166Y-54046452D01*
X78787785Y-54094071D01*
X78835404Y-54189309D01*
X78835404Y-54427404D01*
X78787785Y-54522642D01*
X78740166Y-54570261D01*
X78644928Y-54617880D01*
X78406833Y-54617880D01*
X78311595Y-54570261D01*
X78263976Y-54522642D01*
X79787785Y-54617880D02*
X79216357Y-54617880D01*
X79502071Y-54617880D02*
X79502071Y-53617880D01*
X79406833Y-53760738D01*
X79311595Y-53855976D01*
X79216357Y-53903595D01*
X80406833Y-53617880D02*
X80502071Y-53617880D01*
X80597309Y-53665500D01*
X80644928Y-53713119D01*
X80692547Y-53808357D01*
X80740166Y-53998833D01*
X80740166Y-54236928D01*
X80692547Y-54427404D01*
X80644928Y-54522642D01*
X80597309Y-54570261D01*
X80502071Y-54617880D01*
X80406833Y-54617880D01*
X80311595Y-54570261D01*
X80263976Y-54522642D01*
X80216357Y-54427404D01*
X80168738Y-54236928D01*
X80168738Y-53998833D01*
X80216357Y-53808357D01*
X80263976Y-53713119D01*
X80311595Y-53665500D01*
X80406833Y-53617880D01*
X81121119Y-54617880D02*
X81359214Y-54617880D01*
X81359214Y-54427404D01*
X81263976Y-54379785D01*
X81168738Y-54284547D01*
X81121119Y-54141690D01*
X81121119Y-53903595D01*
X81168738Y-53760738D01*
X81263976Y-53665500D01*
X81406833Y-53617880D01*
X81597309Y-53617880D01*
X81740166Y-53665500D01*
X81835404Y-53760738D01*
X81883023Y-53903595D01*
X81883023Y-54141690D01*
X81835404Y-54284547D01*
X81740166Y-54379785D01*
X81644928Y-54427404D01*
X81644928Y-54617880D01*
X81883023Y-54617880D01*
X104862428Y-143556761D02*
X104862428Y-142794857D01*
X105243380Y-143175809D02*
X104481476Y-143175809D01*
X104243380Y-141842476D02*
X104243380Y-142318666D01*
X104719571Y-142366285D01*
X104671952Y-142318666D01*
X104624333Y-142223428D01*
X104624333Y-141985333D01*
X104671952Y-141890095D01*
X104719571Y-141842476D01*
X104814809Y-141794857D01*
X105052904Y-141794857D01*
X105148142Y-141842476D01*
X105195761Y-141890095D01*
X105243380Y-141985333D01*
X105243380Y-142223428D01*
X105195761Y-142318666D01*
X105148142Y-142366285D01*
X104243380Y-141509142D02*
X105243380Y-141175809D01*
X104243380Y-140842476D01*
X105243380Y-139175809D02*
X104767190Y-139509142D01*
X105243380Y-139747238D02*
X104243380Y-139747238D01*
X104243380Y-139366285D01*
X104291000Y-139271047D01*
X104338619Y-139223428D01*
X104433857Y-139175809D01*
X104576714Y-139175809D01*
X104671952Y-139223428D01*
X104719571Y-139271047D01*
X104767190Y-139366285D01*
X104767190Y-139747238D01*
X105195761Y-138366285D02*
X105243380Y-138461523D01*
X105243380Y-138652000D01*
X105195761Y-138747238D01*
X105100523Y-138794857D01*
X104719571Y-138794857D01*
X104624333Y-138747238D01*
X104576714Y-138652000D01*
X104576714Y-138461523D01*
X104624333Y-138366285D01*
X104719571Y-138318666D01*
X104814809Y-138318666D01*
X104910047Y-138794857D01*
X104576714Y-137461523D02*
X105386238Y-137461523D01*
X105481476Y-137509142D01*
X105529095Y-137556761D01*
X105576714Y-137652000D01*
X105576714Y-137794857D01*
X105529095Y-137890095D01*
X105195761Y-137461523D02*
X105243380Y-137556761D01*
X105243380Y-137747238D01*
X105195761Y-137842476D01*
X105148142Y-137890095D01*
X105052904Y-137937714D01*
X104767190Y-137937714D01*
X104671952Y-137890095D01*
X104624333Y-137842476D01*
X104576714Y-137747238D01*
X104576714Y-137556761D01*
X104624333Y-137461523D01*
X104576714Y-136556761D02*
X105243380Y-136556761D01*
X104576714Y-136985333D02*
X105100523Y-136985333D01*
X105195761Y-136937714D01*
X105243380Y-136842476D01*
X105243380Y-136699619D01*
X105195761Y-136604380D01*
X105148142Y-136556761D01*
X105243380Y-135937714D02*
X105195761Y-136032952D01*
X105100523Y-136080571D01*
X104243380Y-136080571D01*
X105243380Y-135128190D02*
X104719571Y-135128190D01*
X104624333Y-135175809D01*
X104576714Y-135271047D01*
X104576714Y-135461523D01*
X104624333Y-135556761D01*
X105195761Y-135128190D02*
X105243380Y-135223428D01*
X105243380Y-135461523D01*
X105195761Y-135556761D01*
X105100523Y-135604380D01*
X105005285Y-135604380D01*
X104910047Y-135556761D01*
X104862428Y-135461523D01*
X104862428Y-135223428D01*
X104814809Y-135128190D01*
X104576714Y-134794857D02*
X104576714Y-134413904D01*
X104243380Y-134652000D02*
X105100523Y-134652000D01*
X105195761Y-134604380D01*
X105243380Y-134509142D01*
X105243380Y-134413904D01*
X105243380Y-133937714D02*
X105195761Y-134032952D01*
X105148142Y-134080571D01*
X105052904Y-134128190D01*
X104767190Y-134128190D01*
X104671952Y-134080571D01*
X104624333Y-134032952D01*
X104576714Y-133937714D01*
X104576714Y-133794857D01*
X104624333Y-133699619D01*
X104671952Y-133652000D01*
X104767190Y-133604380D01*
X105052904Y-133604380D01*
X105148142Y-133652000D01*
X105195761Y-133699619D01*
X105243380Y-133794857D01*
X105243380Y-133937714D01*
X105243380Y-133175809D02*
X104576714Y-133175809D01*
X104767190Y-133175809D02*
X104671952Y-133128190D01*
X104624333Y-133080571D01*
X104576714Y-132985333D01*
X104576714Y-132890095D01*
X104243380Y-131604380D02*
X104243380Y-131413904D01*
X104291000Y-131318666D01*
X104386238Y-131223428D01*
X104576714Y-131175809D01*
X104910047Y-131175809D01*
X105100523Y-131223428D01*
X105195761Y-131318666D01*
X105243380Y-131413904D01*
X105243380Y-131604380D01*
X105195761Y-131699619D01*
X105100523Y-131794857D01*
X104910047Y-131842476D01*
X104576714Y-131842476D01*
X104386238Y-131794857D01*
X104291000Y-131699619D01*
X104243380Y-131604380D01*
X104576714Y-130318666D02*
X105243380Y-130318666D01*
X104576714Y-130747238D02*
X105100523Y-130747238D01*
X105195761Y-130699619D01*
X105243380Y-130604380D01*
X105243380Y-130461523D01*
X105195761Y-130366285D01*
X105148142Y-130318666D01*
X104576714Y-129985333D02*
X104576714Y-129604380D01*
X104243380Y-129842476D02*
X105100523Y-129842476D01*
X105195761Y-129794857D01*
X105243380Y-129699619D01*
X105243380Y-129604380D01*
X153884428Y-128697761D02*
X153884428Y-127935857D01*
X153265380Y-126983476D02*
X153265380Y-127459666D01*
X153741571Y-127507285D01*
X153693952Y-127459666D01*
X153646333Y-127364428D01*
X153646333Y-127126333D01*
X153693952Y-127031095D01*
X153741571Y-126983476D01*
X153836809Y-126935857D01*
X154074904Y-126935857D01*
X154170142Y-126983476D01*
X154217761Y-127031095D01*
X154265380Y-127126333D01*
X154265380Y-127364428D01*
X154217761Y-127459666D01*
X154170142Y-127507285D01*
X153265380Y-126650142D02*
X154265380Y-126316809D01*
X153265380Y-125983476D01*
X154265380Y-124316809D02*
X153789190Y-124650142D01*
X154265380Y-124888238D02*
X153265380Y-124888238D01*
X153265380Y-124507285D01*
X153313000Y-124412047D01*
X153360619Y-124364428D01*
X153455857Y-124316809D01*
X153598714Y-124316809D01*
X153693952Y-124364428D01*
X153741571Y-124412047D01*
X153789190Y-124507285D01*
X153789190Y-124888238D01*
X154217761Y-123507285D02*
X154265380Y-123602523D01*
X154265380Y-123793000D01*
X154217761Y-123888238D01*
X154122523Y-123935857D01*
X153741571Y-123935857D01*
X153646333Y-123888238D01*
X153598714Y-123793000D01*
X153598714Y-123602523D01*
X153646333Y-123507285D01*
X153741571Y-123459666D01*
X153836809Y-123459666D01*
X153932047Y-123935857D01*
X153598714Y-122602523D02*
X154408238Y-122602523D01*
X154503476Y-122650142D01*
X154551095Y-122697761D01*
X154598714Y-122793000D01*
X154598714Y-122935857D01*
X154551095Y-123031095D01*
X154217761Y-122602523D02*
X154265380Y-122697761D01*
X154265380Y-122888238D01*
X154217761Y-122983476D01*
X154170142Y-123031095D01*
X154074904Y-123078714D01*
X153789190Y-123078714D01*
X153693952Y-123031095D01*
X153646333Y-122983476D01*
X153598714Y-122888238D01*
X153598714Y-122697761D01*
X153646333Y-122602523D01*
X153598714Y-121697761D02*
X154265380Y-121697761D01*
X153598714Y-122126333D02*
X154122523Y-122126333D01*
X154217761Y-122078714D01*
X154265380Y-121983476D01*
X154265380Y-121840619D01*
X154217761Y-121745380D01*
X154170142Y-121697761D01*
X154265380Y-121078714D02*
X154217761Y-121173952D01*
X154122523Y-121221571D01*
X153265380Y-121221571D01*
X154265380Y-120269190D02*
X153741571Y-120269190D01*
X153646333Y-120316809D01*
X153598714Y-120412047D01*
X153598714Y-120602523D01*
X153646333Y-120697761D01*
X154217761Y-120269190D02*
X154265380Y-120364428D01*
X154265380Y-120602523D01*
X154217761Y-120697761D01*
X154122523Y-120745380D01*
X154027285Y-120745380D01*
X153932047Y-120697761D01*
X153884428Y-120602523D01*
X153884428Y-120364428D01*
X153836809Y-120269190D01*
X153598714Y-119935857D02*
X153598714Y-119554904D01*
X153265380Y-119793000D02*
X154122523Y-119793000D01*
X154217761Y-119745380D01*
X154265380Y-119650142D01*
X154265380Y-119554904D01*
X154265380Y-119078714D02*
X154217761Y-119173952D01*
X154170142Y-119221571D01*
X154074904Y-119269190D01*
X153789190Y-119269190D01*
X153693952Y-119221571D01*
X153646333Y-119173952D01*
X153598714Y-119078714D01*
X153598714Y-118935857D01*
X153646333Y-118840619D01*
X153693952Y-118793000D01*
X153789190Y-118745380D01*
X154074904Y-118745380D01*
X154170142Y-118793000D01*
X154217761Y-118840619D01*
X154265380Y-118935857D01*
X154265380Y-119078714D01*
X154265380Y-118316809D02*
X153598714Y-118316809D01*
X153789190Y-118316809D02*
X153693952Y-118269190D01*
X153646333Y-118221571D01*
X153598714Y-118126333D01*
X153598714Y-118031095D01*
X153265380Y-116745380D02*
X153265380Y-116554904D01*
X153313000Y-116459666D01*
X153408238Y-116364428D01*
X153598714Y-116316809D01*
X153932047Y-116316809D01*
X154122523Y-116364428D01*
X154217761Y-116459666D01*
X154265380Y-116554904D01*
X154265380Y-116745380D01*
X154217761Y-116840619D01*
X154122523Y-116935857D01*
X153932047Y-116983476D01*
X153598714Y-116983476D01*
X153408238Y-116935857D01*
X153313000Y-116840619D01*
X153265380Y-116745380D01*
X153598714Y-115459666D02*
X154265380Y-115459666D01*
X153598714Y-115888238D02*
X154122523Y-115888238D01*
X154217761Y-115840619D01*
X154265380Y-115745380D01*
X154265380Y-115602523D01*
X154217761Y-115507285D01*
X154170142Y-115459666D01*
X153598714Y-115126333D02*
X153598714Y-114745380D01*
X153265380Y-114983476D02*
X154122523Y-114983476D01*
X154217761Y-114935857D01*
X154265380Y-114840619D01*
X154265380Y-114745380D01*
X38615928Y-128189833D02*
X38615928Y-127427928D01*
X38996880Y-127808880D02*
X38234976Y-127808880D01*
X37996880Y-126475547D02*
X37996880Y-126951738D01*
X38473071Y-126999357D01*
X38425452Y-126951738D01*
X38377833Y-126856500D01*
X38377833Y-126618404D01*
X38425452Y-126523166D01*
X38473071Y-126475547D01*
X38568309Y-126427928D01*
X38806404Y-126427928D01*
X38901642Y-126475547D01*
X38949261Y-126523166D01*
X38996880Y-126618404D01*
X38996880Y-126856500D01*
X38949261Y-126951738D01*
X38901642Y-126999357D01*
X37996880Y-126142214D02*
X38996880Y-125808880D01*
X37996880Y-125475547D01*
X38996880Y-123808880D02*
X38520690Y-124142214D01*
X38996880Y-124380309D02*
X37996880Y-124380309D01*
X37996880Y-123999357D01*
X38044500Y-123904119D01*
X38092119Y-123856500D01*
X38187357Y-123808880D01*
X38330214Y-123808880D01*
X38425452Y-123856500D01*
X38473071Y-123904119D01*
X38520690Y-123999357D01*
X38520690Y-124380309D01*
X38949261Y-122999357D02*
X38996880Y-123094595D01*
X38996880Y-123285071D01*
X38949261Y-123380309D01*
X38854023Y-123427928D01*
X38473071Y-123427928D01*
X38377833Y-123380309D01*
X38330214Y-123285071D01*
X38330214Y-123094595D01*
X38377833Y-122999357D01*
X38473071Y-122951738D01*
X38568309Y-122951738D01*
X38663547Y-123427928D01*
X38330214Y-122094595D02*
X39139738Y-122094595D01*
X39234976Y-122142214D01*
X39282595Y-122189833D01*
X39330214Y-122285071D01*
X39330214Y-122427928D01*
X39282595Y-122523166D01*
X38949261Y-122094595D02*
X38996880Y-122189833D01*
X38996880Y-122380309D01*
X38949261Y-122475547D01*
X38901642Y-122523166D01*
X38806404Y-122570785D01*
X38520690Y-122570785D01*
X38425452Y-122523166D01*
X38377833Y-122475547D01*
X38330214Y-122380309D01*
X38330214Y-122189833D01*
X38377833Y-122094595D01*
X38330214Y-121189833D02*
X38996880Y-121189833D01*
X38330214Y-121618404D02*
X38854023Y-121618404D01*
X38949261Y-121570785D01*
X38996880Y-121475547D01*
X38996880Y-121332690D01*
X38949261Y-121237452D01*
X38901642Y-121189833D01*
X38996880Y-120570785D02*
X38949261Y-120666023D01*
X38854023Y-120713642D01*
X37996880Y-120713642D01*
X38996880Y-119761261D02*
X38473071Y-119761261D01*
X38377833Y-119808880D01*
X38330214Y-119904119D01*
X38330214Y-120094595D01*
X38377833Y-120189833D01*
X38949261Y-119761261D02*
X38996880Y-119856500D01*
X38996880Y-120094595D01*
X38949261Y-120189833D01*
X38854023Y-120237452D01*
X38758785Y-120237452D01*
X38663547Y-120189833D01*
X38615928Y-120094595D01*
X38615928Y-119856500D01*
X38568309Y-119761261D01*
X38330214Y-119427928D02*
X38330214Y-119046976D01*
X37996880Y-119285071D02*
X38854023Y-119285071D01*
X38949261Y-119237452D01*
X38996880Y-119142214D01*
X38996880Y-119046976D01*
X38996880Y-118570785D02*
X38949261Y-118666023D01*
X38901642Y-118713642D01*
X38806404Y-118761261D01*
X38520690Y-118761261D01*
X38425452Y-118713642D01*
X38377833Y-118666023D01*
X38330214Y-118570785D01*
X38330214Y-118427928D01*
X38377833Y-118332690D01*
X38425452Y-118285071D01*
X38520690Y-118237452D01*
X38806404Y-118237452D01*
X38901642Y-118285071D01*
X38949261Y-118332690D01*
X38996880Y-118427928D01*
X38996880Y-118570785D01*
X38996880Y-117808880D02*
X38330214Y-117808880D01*
X38520690Y-117808880D02*
X38425452Y-117761261D01*
X38377833Y-117713642D01*
X38330214Y-117618404D01*
X38330214Y-117523166D01*
X38996880Y-116427928D02*
X37996880Y-116427928D01*
X38330214Y-115951738D02*
X38996880Y-115951738D01*
X38425452Y-115951738D02*
X38377833Y-115904119D01*
X38330214Y-115808880D01*
X38330214Y-115666023D01*
X38377833Y-115570785D01*
X38473071Y-115523166D01*
X38996880Y-115523166D01*
X104862428Y-128126333D02*
X104862428Y-127364428D01*
X104243380Y-126412047D02*
X104243380Y-126888238D01*
X104719571Y-126935857D01*
X104671952Y-126888238D01*
X104624333Y-126793000D01*
X104624333Y-126554904D01*
X104671952Y-126459666D01*
X104719571Y-126412047D01*
X104814809Y-126364428D01*
X105052904Y-126364428D01*
X105148142Y-126412047D01*
X105195761Y-126459666D01*
X105243380Y-126554904D01*
X105243380Y-126793000D01*
X105195761Y-126888238D01*
X105148142Y-126935857D01*
X104243380Y-126078714D02*
X105243380Y-125745380D01*
X104243380Y-125412047D01*
X105243380Y-123745380D02*
X104767190Y-124078714D01*
X105243380Y-124316809D02*
X104243380Y-124316809D01*
X104243380Y-123935857D01*
X104291000Y-123840619D01*
X104338619Y-123793000D01*
X104433857Y-123745380D01*
X104576714Y-123745380D01*
X104671952Y-123793000D01*
X104719571Y-123840619D01*
X104767190Y-123935857D01*
X104767190Y-124316809D01*
X105195761Y-122935857D02*
X105243380Y-123031095D01*
X105243380Y-123221571D01*
X105195761Y-123316809D01*
X105100523Y-123364428D01*
X104719571Y-123364428D01*
X104624333Y-123316809D01*
X104576714Y-123221571D01*
X104576714Y-123031095D01*
X104624333Y-122935857D01*
X104719571Y-122888238D01*
X104814809Y-122888238D01*
X104910047Y-123364428D01*
X104576714Y-122031095D02*
X105386238Y-122031095D01*
X105481476Y-122078714D01*
X105529095Y-122126333D01*
X105576714Y-122221571D01*
X105576714Y-122364428D01*
X105529095Y-122459666D01*
X105195761Y-122031095D02*
X105243380Y-122126333D01*
X105243380Y-122316809D01*
X105195761Y-122412047D01*
X105148142Y-122459666D01*
X105052904Y-122507285D01*
X104767190Y-122507285D01*
X104671952Y-122459666D01*
X104624333Y-122412047D01*
X104576714Y-122316809D01*
X104576714Y-122126333D01*
X104624333Y-122031095D01*
X104576714Y-121126333D02*
X105243380Y-121126333D01*
X104576714Y-121554904D02*
X105100523Y-121554904D01*
X105195761Y-121507285D01*
X105243380Y-121412047D01*
X105243380Y-121269190D01*
X105195761Y-121173952D01*
X105148142Y-121126333D01*
X105243380Y-120507285D02*
X105195761Y-120602523D01*
X105100523Y-120650142D01*
X104243380Y-120650142D01*
X105243380Y-119697761D02*
X104719571Y-119697761D01*
X104624333Y-119745380D01*
X104576714Y-119840619D01*
X104576714Y-120031095D01*
X104624333Y-120126333D01*
X105195761Y-119697761D02*
X105243380Y-119793000D01*
X105243380Y-120031095D01*
X105195761Y-120126333D01*
X105100523Y-120173952D01*
X105005285Y-120173952D01*
X104910047Y-120126333D01*
X104862428Y-120031095D01*
X104862428Y-119793000D01*
X104814809Y-119697761D01*
X104576714Y-119364428D02*
X104576714Y-118983476D01*
X104243380Y-119221571D02*
X105100523Y-119221571D01*
X105195761Y-119173952D01*
X105243380Y-119078714D01*
X105243380Y-118983476D01*
X105243380Y-118507285D02*
X105195761Y-118602523D01*
X105148142Y-118650142D01*
X105052904Y-118697761D01*
X104767190Y-118697761D01*
X104671952Y-118650142D01*
X104624333Y-118602523D01*
X104576714Y-118507285D01*
X104576714Y-118364428D01*
X104624333Y-118269190D01*
X104671952Y-118221571D01*
X104767190Y-118173952D01*
X105052904Y-118173952D01*
X105148142Y-118221571D01*
X105195761Y-118269190D01*
X105243380Y-118364428D01*
X105243380Y-118507285D01*
X105243380Y-117745380D02*
X104576714Y-117745380D01*
X104767190Y-117745380D02*
X104671952Y-117697761D01*
X104624333Y-117650142D01*
X104576714Y-117554904D01*
X104576714Y-117459666D01*
X105243380Y-116364428D02*
X104243380Y-116364428D01*
X104576714Y-115888238D02*
X105243380Y-115888238D01*
X104671952Y-115888238D02*
X104624333Y-115840619D01*
X104576714Y-115745380D01*
X104576714Y-115602523D01*
X104624333Y-115507285D01*
X104719571Y-115459666D01*
X105243380Y-115459666D01*
X145065380Y-98250333D02*
X145779666Y-98250333D01*
X145922523Y-98297952D01*
X146017761Y-98393190D01*
X146065380Y-98536047D01*
X146065380Y-98631285D01*
X146065380Y-97250333D02*
X146065380Y-97821761D01*
X146065380Y-97536047D02*
X145065380Y-97536047D01*
X145208238Y-97631285D01*
X145303476Y-97726523D01*
X145351095Y-97821761D01*
M02*
