M48
; DRILL file {KiCad (5.1.5-0-10_14)} date Saturday, 31 October 2020 at 12:06:33
; FORMAT={-:-/ absolute / inch / decimal}
; #@! TF.CreationDate,2020-10-31T12:06:33+01:00
; #@! TF.GenerationSoftware,Kicad,Pcbnew,(5.1.5-0-10_14)
; #@! TF.FileFunction,Plated,1,2,PTH
FMAT,2
INCH
T1C0.0315
T2C0.0354
T3C0.0472
T4C0.0591
T5C0.0669
%
G90
G05
T1
X3.0025Y-2.0325
X3.3025Y-2.0325
T2
X2.6875Y-2.0325
X2.7875Y-2.0325
T3
X3.965Y-5.33
X3.965Y-5.43
X5.895Y-4.745
X5.895Y-4.845
X1.695Y-4.745
X1.695Y-4.845
X3.965Y-4.745
X3.965Y-4.845
X5.895Y-3.805
X5.895Y-3.905
T4
X1.6874Y-1.9741
X1.6874Y-2.2275
X1.8612Y-1.9741
X1.8612Y-2.2275
X2.035Y-1.9741
X2.035Y-2.2275
T5
X2.1441Y-5.7025
X2.3Y-5.7025
X2.4559Y-5.7025
X2.6118Y-5.7025
T0
M30
