G04 #@! TF.GenerationSoftware,KiCad,Pcbnew,(5.1.5-0-10_14)*
G04 #@! TF.CreationDate,2020-10-31T12:06:31+01:00*
G04 #@! TF.ProjectId,ti99-psu,74693939-2d70-4737-952e-6b696361645f,rev?*
G04 #@! TF.SameCoordinates,Original*
G04 #@! TF.FileFunction,Soldermask,Top*
G04 #@! TF.FilePolarity,Negative*
%FSLAX46Y46*%
G04 Gerber Fmt 4.6, Leading zero omitted, Abs format (unit mm)*
G04 Created by KiCad (PCBNEW (5.1.5-0-10_14)) date 2020-10-31 12:06:31*
%MOMM*%
%LPD*%
G04 APERTURE LIST*
%ADD10C,0.100000*%
G04 APERTURE END LIST*
D10*
G36*
X54779730Y-142766099D02*
G01*
X55087179Y-142859363D01*
X55370518Y-143010811D01*
X55618871Y-143214629D01*
X55822689Y-143462982D01*
X55974137Y-143746321D01*
X56067401Y-144053770D01*
X56091000Y-144293379D01*
X56091000Y-145393622D01*
X56067401Y-145633230D01*
X55974137Y-145940679D01*
X55822691Y-146224014D01*
X55822688Y-146224019D01*
X55618871Y-146472371D01*
X55370518Y-146676188D01*
X55370514Y-146676191D01*
X55087178Y-146827637D01*
X54779729Y-146920901D01*
X54460000Y-146952391D01*
X54140270Y-146920901D01*
X53832821Y-146827637D01*
X53549482Y-146676189D01*
X53480044Y-146619202D01*
X53301129Y-146472371D01*
X53097312Y-146224018D01*
X53097311Y-146224017D01*
X53097309Y-146224014D01*
X52945863Y-145940678D01*
X52852599Y-145633229D01*
X52829000Y-145393621D01*
X52829000Y-144293378D01*
X52852599Y-144053770D01*
X52945863Y-143746321D01*
X53036632Y-143576506D01*
X53097312Y-143462981D01*
X53301130Y-143214629D01*
X53549482Y-143010812D01*
X53549481Y-143010812D01*
X53549483Y-143010811D01*
X53832822Y-142859363D01*
X54140271Y-142766099D01*
X54460000Y-142734609D01*
X54779730Y-142766099D01*
G37*
G36*
X58739730Y-142766099D02*
G01*
X59047179Y-142859363D01*
X59330518Y-143010811D01*
X59578871Y-143214629D01*
X59782689Y-143462982D01*
X59934137Y-143746321D01*
X60027401Y-144053770D01*
X60051000Y-144293379D01*
X60051000Y-145393622D01*
X60027401Y-145633230D01*
X59934137Y-145940679D01*
X59782691Y-146224014D01*
X59782688Y-146224019D01*
X59578871Y-146472371D01*
X59330518Y-146676188D01*
X59330514Y-146676191D01*
X59047178Y-146827637D01*
X58739729Y-146920901D01*
X58420000Y-146952391D01*
X58100270Y-146920901D01*
X57792821Y-146827637D01*
X57509482Y-146676189D01*
X57440044Y-146619202D01*
X57261129Y-146472371D01*
X57057312Y-146224018D01*
X57057311Y-146224017D01*
X57057309Y-146224014D01*
X56905863Y-145940678D01*
X56812599Y-145633229D01*
X56789000Y-145393621D01*
X56789000Y-144293378D01*
X56812599Y-144053770D01*
X56905863Y-143746321D01*
X56996632Y-143576506D01*
X57057312Y-143462981D01*
X57261130Y-143214629D01*
X57509482Y-143010812D01*
X57509481Y-143010812D01*
X57509483Y-143010811D01*
X57792822Y-142859363D01*
X58100271Y-142766099D01*
X58420000Y-142734609D01*
X58739730Y-142766099D01*
G37*
G36*
X62699730Y-142766099D02*
G01*
X63007179Y-142859363D01*
X63290518Y-143010811D01*
X63538871Y-143214629D01*
X63742689Y-143462982D01*
X63894137Y-143746321D01*
X63987401Y-144053770D01*
X64011000Y-144293379D01*
X64011000Y-145393622D01*
X63987401Y-145633230D01*
X63894137Y-145940679D01*
X63742691Y-146224014D01*
X63742688Y-146224019D01*
X63538871Y-146472371D01*
X63290518Y-146676188D01*
X63290514Y-146676191D01*
X63007178Y-146827637D01*
X62699729Y-146920901D01*
X62380000Y-146952391D01*
X62060270Y-146920901D01*
X61752821Y-146827637D01*
X61469482Y-146676189D01*
X61400044Y-146619202D01*
X61221129Y-146472371D01*
X61017312Y-146224018D01*
X61017311Y-146224017D01*
X61017309Y-146224014D01*
X60865863Y-145940678D01*
X60772599Y-145633229D01*
X60749000Y-145393621D01*
X60749000Y-144293378D01*
X60772599Y-144053770D01*
X60865863Y-143746321D01*
X60956632Y-143576506D01*
X61017312Y-143462981D01*
X61221130Y-143214629D01*
X61469482Y-143010812D01*
X61469481Y-143010812D01*
X61469483Y-143010811D01*
X61752822Y-142859363D01*
X62060271Y-142766099D01*
X62380000Y-142734609D01*
X62699730Y-142766099D01*
G37*
G36*
X67847850Y-142746030D02*
G01*
X67876413Y-142754694D01*
X67902734Y-142768763D01*
X67925804Y-142787696D01*
X67944737Y-142810766D01*
X67958806Y-142837087D01*
X67967470Y-142865650D01*
X67971000Y-142901490D01*
X67971000Y-146785510D01*
X67967470Y-146821350D01*
X67958806Y-146849913D01*
X67944737Y-146876234D01*
X67925804Y-146899304D01*
X67902734Y-146918237D01*
X67876413Y-146932306D01*
X67847850Y-146940970D01*
X67812010Y-146944500D01*
X64867990Y-146944500D01*
X64832150Y-146940970D01*
X64803587Y-146932306D01*
X64777266Y-146918237D01*
X64754196Y-146899304D01*
X64735263Y-146876234D01*
X64721194Y-146849913D01*
X64712530Y-146821350D01*
X64709000Y-146785510D01*
X64709000Y-142901490D01*
X64712530Y-142865650D01*
X64721194Y-142837087D01*
X64735263Y-142810766D01*
X64754196Y-142787696D01*
X64777266Y-142768763D01*
X64803587Y-142754694D01*
X64832150Y-142746030D01*
X64867990Y-142742500D01*
X67812010Y-142742500D01*
X67847850Y-142746030D01*
G37*
G36*
X43174754Y-141402318D02*
G01*
X43548011Y-141556926D01*
X43548013Y-141556927D01*
X43883936Y-141781384D01*
X44169616Y-142067064D01*
X44394074Y-142402989D01*
X44548682Y-142776246D01*
X44627500Y-143172493D01*
X44627500Y-143576507D01*
X44548682Y-143972754D01*
X44415873Y-144293383D01*
X44394073Y-144346013D01*
X44169616Y-144681936D01*
X43883936Y-144967616D01*
X43548013Y-145192073D01*
X43548012Y-145192074D01*
X43548011Y-145192074D01*
X43174754Y-145346682D01*
X42778507Y-145425500D01*
X42374493Y-145425500D01*
X41978246Y-145346682D01*
X41604989Y-145192074D01*
X41604988Y-145192074D01*
X41604987Y-145192073D01*
X41269064Y-144967616D01*
X40983384Y-144681936D01*
X40758927Y-144346013D01*
X40737127Y-144293383D01*
X40604318Y-143972754D01*
X40525500Y-143576507D01*
X40525500Y-143172493D01*
X40604318Y-142776246D01*
X40758926Y-142402989D01*
X40983384Y-142067064D01*
X41269064Y-141781384D01*
X41604987Y-141556927D01*
X41604989Y-141556926D01*
X41978246Y-141402318D01*
X42374493Y-141323500D01*
X42778507Y-141323500D01*
X43174754Y-141402318D01*
G37*
G36*
X41174754Y-136902318D02*
G01*
X41461630Y-137021146D01*
X41548013Y-137056927D01*
X41783123Y-137214023D01*
X41883936Y-137281384D01*
X42169616Y-137567064D01*
X42394074Y-137902989D01*
X42548682Y-138276246D01*
X42627500Y-138672493D01*
X42627500Y-139076507D01*
X42548682Y-139472754D01*
X42464464Y-139676074D01*
X42394073Y-139846013D01*
X42169616Y-140181936D01*
X41883936Y-140467616D01*
X41548013Y-140692073D01*
X41548012Y-140692074D01*
X41548011Y-140692074D01*
X41174754Y-140846682D01*
X40778507Y-140925500D01*
X40374493Y-140925500D01*
X39978246Y-140846682D01*
X39604989Y-140692074D01*
X39604988Y-140692074D01*
X39604987Y-140692073D01*
X39269064Y-140467616D01*
X38983384Y-140181936D01*
X38758927Y-139846013D01*
X38688536Y-139676074D01*
X38604318Y-139472754D01*
X38525500Y-139076507D01*
X38525500Y-138672493D01*
X38604318Y-138276246D01*
X38758926Y-137902989D01*
X38983384Y-137567064D01*
X39269064Y-137281384D01*
X39369877Y-137214023D01*
X39604987Y-137056927D01*
X39691370Y-137021146D01*
X39978246Y-136902318D01*
X40374493Y-136823500D01*
X40778507Y-136823500D01*
X41174754Y-136902318D01*
G37*
G36*
X151791754Y-135886318D02*
G01*
X152154077Y-136036397D01*
X152165013Y-136040927D01*
X152330480Y-136151489D01*
X152500936Y-136265384D01*
X152786616Y-136551064D01*
X153011074Y-136886989D01*
X153165682Y-137260246D01*
X153244500Y-137656493D01*
X153244500Y-138060507D01*
X153165682Y-138456754D01*
X153011461Y-138829077D01*
X153011073Y-138830013D01*
X152786616Y-139165936D01*
X152500936Y-139451616D01*
X152165013Y-139676073D01*
X152165012Y-139676074D01*
X152165011Y-139676074D01*
X151791754Y-139830682D01*
X151395507Y-139909500D01*
X150991493Y-139909500D01*
X150595246Y-139830682D01*
X150221989Y-139676074D01*
X150221988Y-139676074D01*
X150221987Y-139676073D01*
X149886064Y-139451616D01*
X149600384Y-139165936D01*
X149375927Y-138830013D01*
X149375539Y-138829077D01*
X149221318Y-138456754D01*
X149142500Y-138060507D01*
X149142500Y-137656493D01*
X149221318Y-137260246D01*
X149375926Y-136886989D01*
X149600384Y-136551064D01*
X149886064Y-136265384D01*
X150056520Y-136151489D01*
X150221987Y-136040927D01*
X150232923Y-136036397D01*
X150595246Y-135886318D01*
X150991493Y-135807500D01*
X151395507Y-135807500D01*
X151791754Y-135886318D01*
G37*
G36*
X101720561Y-137004966D02*
G01*
X101753383Y-137014923D01*
X101783632Y-137031092D01*
X101810148Y-137052852D01*
X101831908Y-137079368D01*
X101848077Y-137109617D01*
X101858034Y-137142439D01*
X101862000Y-137182713D01*
X101862000Y-138661287D01*
X101858034Y-138701561D01*
X101848077Y-138734383D01*
X101831908Y-138764632D01*
X101810148Y-138791148D01*
X101783632Y-138812908D01*
X101753383Y-138829077D01*
X101720561Y-138839034D01*
X101680287Y-138843000D01*
X99741713Y-138843000D01*
X99701439Y-138839034D01*
X99668617Y-138829077D01*
X99638368Y-138812908D01*
X99611852Y-138791148D01*
X99590092Y-138764632D01*
X99573923Y-138734383D01*
X99563966Y-138701561D01*
X99560000Y-138661287D01*
X99560000Y-137182713D01*
X99563966Y-137142439D01*
X99573923Y-137109617D01*
X99590092Y-137079368D01*
X99611852Y-137052852D01*
X99638368Y-137031092D01*
X99668617Y-137014923D01*
X99701439Y-137004966D01*
X99741713Y-137001000D01*
X101680287Y-137001000D01*
X101720561Y-137004966D01*
G37*
G36*
X101031345Y-134465442D02*
G01*
X101121548Y-134474326D01*
X101295157Y-134526990D01*
X101455156Y-134612511D01*
X101498729Y-134648271D01*
X101595397Y-134727603D01*
X101674729Y-134824271D01*
X101710489Y-134867844D01*
X101796010Y-135027843D01*
X101848674Y-135201452D01*
X101866456Y-135382000D01*
X101848674Y-135562548D01*
X101796010Y-135736157D01*
X101710489Y-135896156D01*
X101674729Y-135939729D01*
X101595397Y-136036397D01*
X101498729Y-136115729D01*
X101455156Y-136151489D01*
X101295157Y-136237010D01*
X101121548Y-136289674D01*
X101031345Y-136298558D01*
X100986245Y-136303000D01*
X100435755Y-136303000D01*
X100390655Y-136298558D01*
X100300452Y-136289674D01*
X100126843Y-136237010D01*
X99966844Y-136151489D01*
X99923271Y-136115729D01*
X99826603Y-136036397D01*
X99747271Y-135939729D01*
X99711511Y-135896156D01*
X99625990Y-135736157D01*
X99573326Y-135562548D01*
X99555544Y-135382000D01*
X99573326Y-135201452D01*
X99625990Y-135027843D01*
X99711511Y-134867844D01*
X99747271Y-134824271D01*
X99826603Y-134727603D01*
X99923271Y-134648271D01*
X99966844Y-134612511D01*
X100126843Y-134526990D01*
X100300452Y-134474326D01*
X100390655Y-134465442D01*
X100435755Y-134461000D01*
X100986245Y-134461000D01*
X101031345Y-134465442D01*
G37*
G36*
X150742561Y-122145966D02*
G01*
X150775383Y-122155923D01*
X150805632Y-122172092D01*
X150832148Y-122193852D01*
X150853908Y-122220368D01*
X150870077Y-122250617D01*
X150880034Y-122283439D01*
X150884000Y-122323713D01*
X150884000Y-123802287D01*
X150880034Y-123842561D01*
X150870077Y-123875383D01*
X150853908Y-123905632D01*
X150832148Y-123932148D01*
X150805632Y-123953908D01*
X150775383Y-123970077D01*
X150742561Y-123980034D01*
X150702287Y-123984000D01*
X148763713Y-123984000D01*
X148723439Y-123980034D01*
X148690617Y-123970077D01*
X148660368Y-123953908D01*
X148633852Y-123932148D01*
X148612092Y-123905632D01*
X148595923Y-123875383D01*
X148585966Y-123842561D01*
X148582000Y-123802287D01*
X148582000Y-122323713D01*
X148585966Y-122283439D01*
X148595923Y-122250617D01*
X148612092Y-122220368D01*
X148633852Y-122193852D01*
X148660368Y-122172092D01*
X148690617Y-122155923D01*
X148723439Y-122145966D01*
X148763713Y-122142000D01*
X150702287Y-122142000D01*
X150742561Y-122145966D01*
G37*
G36*
X101720561Y-122145966D02*
G01*
X101753383Y-122155923D01*
X101783632Y-122172092D01*
X101810148Y-122193852D01*
X101831908Y-122220368D01*
X101848077Y-122250617D01*
X101858034Y-122283439D01*
X101862000Y-122323713D01*
X101862000Y-123802287D01*
X101858034Y-123842561D01*
X101848077Y-123875383D01*
X101831908Y-123905632D01*
X101810148Y-123932148D01*
X101783632Y-123953908D01*
X101753383Y-123970077D01*
X101720561Y-123980034D01*
X101680287Y-123984000D01*
X99741713Y-123984000D01*
X99701439Y-123980034D01*
X99668617Y-123970077D01*
X99638368Y-123953908D01*
X99611852Y-123932148D01*
X99590092Y-123905632D01*
X99573923Y-123875383D01*
X99563966Y-123842561D01*
X99560000Y-123802287D01*
X99560000Y-122323713D01*
X99563966Y-122283439D01*
X99573923Y-122250617D01*
X99590092Y-122220368D01*
X99611852Y-122193852D01*
X99638368Y-122172092D01*
X99668617Y-122155923D01*
X99701439Y-122145966D01*
X99741713Y-122142000D01*
X101680287Y-122142000D01*
X101720561Y-122145966D01*
G37*
G36*
X44062561Y-122145966D02*
G01*
X44095383Y-122155923D01*
X44125632Y-122172092D01*
X44152148Y-122193852D01*
X44173908Y-122220368D01*
X44190077Y-122250617D01*
X44200034Y-122283439D01*
X44204000Y-122323713D01*
X44204000Y-123802287D01*
X44200034Y-123842561D01*
X44190077Y-123875383D01*
X44173908Y-123905632D01*
X44152148Y-123932148D01*
X44125632Y-123953908D01*
X44095383Y-123970077D01*
X44062561Y-123980034D01*
X44022287Y-123984000D01*
X42083713Y-123984000D01*
X42043439Y-123980034D01*
X42010617Y-123970077D01*
X41980368Y-123953908D01*
X41953852Y-123932148D01*
X41932092Y-123905632D01*
X41915923Y-123875383D01*
X41905966Y-123842561D01*
X41902000Y-123802287D01*
X41902000Y-122323713D01*
X41905966Y-122283439D01*
X41915923Y-122250617D01*
X41932092Y-122220368D01*
X41953852Y-122193852D01*
X41980368Y-122172092D01*
X42010617Y-122155923D01*
X42043439Y-122145966D01*
X42083713Y-122142000D01*
X44022287Y-122142000D01*
X44062561Y-122145966D01*
G37*
G36*
X150053345Y-119606442D02*
G01*
X150143548Y-119615326D01*
X150317157Y-119667990D01*
X150477156Y-119753511D01*
X150520729Y-119789271D01*
X150617397Y-119868603D01*
X150696729Y-119965271D01*
X150732489Y-120008844D01*
X150818010Y-120168843D01*
X150870674Y-120342452D01*
X150888456Y-120523000D01*
X150870674Y-120703548D01*
X150818010Y-120877157D01*
X150732489Y-121037156D01*
X150696729Y-121080729D01*
X150617397Y-121177397D01*
X150520729Y-121256729D01*
X150477156Y-121292489D01*
X150317157Y-121378010D01*
X150143548Y-121430674D01*
X150053345Y-121439558D01*
X150008245Y-121444000D01*
X149457755Y-121444000D01*
X149412655Y-121439558D01*
X149322452Y-121430674D01*
X149148843Y-121378010D01*
X148988844Y-121292489D01*
X148945271Y-121256729D01*
X148848603Y-121177397D01*
X148769271Y-121080729D01*
X148733511Y-121037156D01*
X148647990Y-120877157D01*
X148595326Y-120703548D01*
X148577544Y-120523000D01*
X148595326Y-120342452D01*
X148647990Y-120168843D01*
X148733511Y-120008844D01*
X148769271Y-119965271D01*
X148848603Y-119868603D01*
X148945271Y-119789271D01*
X148988844Y-119753511D01*
X149148843Y-119667990D01*
X149322452Y-119615326D01*
X149412655Y-119606442D01*
X149457755Y-119602000D01*
X150008245Y-119602000D01*
X150053345Y-119606442D01*
G37*
G36*
X101031345Y-119606442D02*
G01*
X101121548Y-119615326D01*
X101295157Y-119667990D01*
X101455156Y-119753511D01*
X101498729Y-119789271D01*
X101595397Y-119868603D01*
X101674729Y-119965271D01*
X101710489Y-120008844D01*
X101796010Y-120168843D01*
X101848674Y-120342452D01*
X101866456Y-120523000D01*
X101848674Y-120703548D01*
X101796010Y-120877157D01*
X101710489Y-121037156D01*
X101674729Y-121080729D01*
X101595397Y-121177397D01*
X101498729Y-121256729D01*
X101455156Y-121292489D01*
X101295157Y-121378010D01*
X101121548Y-121430674D01*
X101031345Y-121439558D01*
X100986245Y-121444000D01*
X100435755Y-121444000D01*
X100390655Y-121439558D01*
X100300452Y-121430674D01*
X100126843Y-121378010D01*
X99966844Y-121292489D01*
X99923271Y-121256729D01*
X99826603Y-121177397D01*
X99747271Y-121080729D01*
X99711511Y-121037156D01*
X99625990Y-120877157D01*
X99573326Y-120703548D01*
X99555544Y-120523000D01*
X99573326Y-120342452D01*
X99625990Y-120168843D01*
X99711511Y-120008844D01*
X99747271Y-119965271D01*
X99826603Y-119868603D01*
X99923271Y-119789271D01*
X99966844Y-119753511D01*
X100126843Y-119667990D01*
X100300452Y-119615326D01*
X100390655Y-119606442D01*
X100435755Y-119602000D01*
X100986245Y-119602000D01*
X101031345Y-119606442D01*
G37*
G36*
X43373345Y-119606442D02*
G01*
X43463548Y-119615326D01*
X43637157Y-119667990D01*
X43797156Y-119753511D01*
X43840729Y-119789271D01*
X43937397Y-119868603D01*
X44016729Y-119965271D01*
X44052489Y-120008844D01*
X44138010Y-120168843D01*
X44190674Y-120342452D01*
X44208456Y-120523000D01*
X44190674Y-120703548D01*
X44138010Y-120877157D01*
X44052489Y-121037156D01*
X44016729Y-121080729D01*
X43937397Y-121177397D01*
X43840729Y-121256729D01*
X43797156Y-121292489D01*
X43637157Y-121378010D01*
X43463548Y-121430674D01*
X43373345Y-121439558D01*
X43328245Y-121444000D01*
X42777755Y-121444000D01*
X42732655Y-121439558D01*
X42642452Y-121430674D01*
X42468843Y-121378010D01*
X42308844Y-121292489D01*
X42265271Y-121256729D01*
X42168603Y-121177397D01*
X42089271Y-121080729D01*
X42053511Y-121037156D01*
X41967990Y-120877157D01*
X41915326Y-120703548D01*
X41897544Y-120523000D01*
X41915326Y-120342452D01*
X41967990Y-120168843D01*
X42053511Y-120008844D01*
X42089271Y-119965271D01*
X42168603Y-119868603D01*
X42265271Y-119789271D01*
X42308844Y-119753511D01*
X42468843Y-119667990D01*
X42642452Y-119615326D01*
X42732655Y-119606442D01*
X42777755Y-119602000D01*
X43328245Y-119602000D01*
X43373345Y-119606442D01*
G37*
G36*
X150742561Y-98269966D02*
G01*
X150775383Y-98279923D01*
X150805632Y-98296092D01*
X150832148Y-98317852D01*
X150853908Y-98344368D01*
X150870077Y-98374617D01*
X150880034Y-98407439D01*
X150884000Y-98447713D01*
X150884000Y-99926287D01*
X150880034Y-99966561D01*
X150870077Y-99999383D01*
X150853908Y-100029632D01*
X150832148Y-100056148D01*
X150805632Y-100077908D01*
X150775383Y-100094077D01*
X150742561Y-100104034D01*
X150702287Y-100108000D01*
X148763713Y-100108000D01*
X148723439Y-100104034D01*
X148690617Y-100094077D01*
X148660368Y-100077908D01*
X148633852Y-100056148D01*
X148612092Y-100029632D01*
X148595923Y-99999383D01*
X148585966Y-99966561D01*
X148582000Y-99926287D01*
X148582000Y-98447713D01*
X148585966Y-98407439D01*
X148595923Y-98374617D01*
X148612092Y-98344368D01*
X148633852Y-98317852D01*
X148660368Y-98296092D01*
X148690617Y-98279923D01*
X148723439Y-98269966D01*
X148763713Y-98266000D01*
X150702287Y-98266000D01*
X150742561Y-98269966D01*
G37*
G36*
X150053345Y-95730442D02*
G01*
X150143548Y-95739326D01*
X150317157Y-95791990D01*
X150477156Y-95877511D01*
X150520729Y-95913271D01*
X150617397Y-95992603D01*
X150696729Y-96089271D01*
X150732489Y-96132844D01*
X150818010Y-96292843D01*
X150870674Y-96466452D01*
X150888456Y-96647000D01*
X150870674Y-96827548D01*
X150818010Y-97001157D01*
X150732489Y-97161156D01*
X150696729Y-97204729D01*
X150617397Y-97301397D01*
X150520729Y-97380729D01*
X150477156Y-97416489D01*
X150317157Y-97502010D01*
X150143548Y-97554674D01*
X150053345Y-97563558D01*
X150008245Y-97568000D01*
X149457755Y-97568000D01*
X149412655Y-97563558D01*
X149322452Y-97554674D01*
X149148843Y-97502010D01*
X148988844Y-97416489D01*
X148945271Y-97380729D01*
X148848603Y-97301397D01*
X148769271Y-97204729D01*
X148733511Y-97161156D01*
X148647990Y-97001157D01*
X148595326Y-96827548D01*
X148577544Y-96647000D01*
X148595326Y-96466452D01*
X148647990Y-96292843D01*
X148733511Y-96132844D01*
X148769271Y-96089271D01*
X148848603Y-95992603D01*
X148945271Y-95913271D01*
X148988844Y-95877511D01*
X149148843Y-95791990D01*
X149322452Y-95739326D01*
X149412655Y-95730442D01*
X149457755Y-95726000D01*
X150008245Y-95726000D01*
X150053345Y-95730442D01*
G37*
G36*
X152229287Y-78309962D02*
G01*
X152229290Y-78309963D01*
X152229289Y-78309963D01*
X152875529Y-78577644D01*
X153457131Y-78966258D01*
X153951742Y-79460869D01*
X154340356Y-80042471D01*
X154340356Y-80042472D01*
X154608038Y-80688713D01*
X154744500Y-81374756D01*
X154744500Y-82074244D01*
X154608038Y-82760287D01*
X154608037Y-82760289D01*
X154340356Y-83406529D01*
X153951742Y-83988131D01*
X153457131Y-84482742D01*
X152875529Y-84871356D01*
X152418568Y-85060635D01*
X152229287Y-85139038D01*
X151543244Y-85275500D01*
X150843756Y-85275500D01*
X150157713Y-85139038D01*
X149968432Y-85060635D01*
X149511471Y-84871356D01*
X148929869Y-84482742D01*
X148435258Y-83988131D01*
X148046644Y-83406529D01*
X147778963Y-82760289D01*
X147778962Y-82760287D01*
X147642500Y-82074244D01*
X147642500Y-81374756D01*
X147778962Y-80688713D01*
X148046644Y-80042472D01*
X148046644Y-80042471D01*
X148435258Y-79460869D01*
X148929869Y-78966258D01*
X149511471Y-78577644D01*
X150157711Y-78309963D01*
X150157710Y-78309963D01*
X150157713Y-78309962D01*
X150843756Y-78173500D01*
X151543244Y-78173500D01*
X152229287Y-78309962D01*
G37*
G36*
X151791754Y-68703318D02*
G01*
X152165011Y-68857926D01*
X152165013Y-68857927D01*
X152500936Y-69082384D01*
X152786616Y-69368064D01*
X153011074Y-69703989D01*
X153165682Y-70077246D01*
X153244500Y-70473493D01*
X153244500Y-70877507D01*
X153165682Y-71273754D01*
X153011074Y-71647011D01*
X153011073Y-71647013D01*
X152786616Y-71982936D01*
X152500936Y-72268616D01*
X152165013Y-72493073D01*
X152165012Y-72493074D01*
X152165011Y-72493074D01*
X151791754Y-72647682D01*
X151395507Y-72726500D01*
X150991493Y-72726500D01*
X150595246Y-72647682D01*
X150221989Y-72493074D01*
X150221988Y-72493074D01*
X150221987Y-72493073D01*
X149886064Y-72268616D01*
X149600384Y-71982936D01*
X149375927Y-71647013D01*
X149375926Y-71647011D01*
X149221318Y-71273754D01*
X149142500Y-70877507D01*
X149142500Y-70473493D01*
X149221318Y-70077246D01*
X149375926Y-69703989D01*
X149600384Y-69368064D01*
X149886064Y-69082384D01*
X150221987Y-68857927D01*
X150221989Y-68857926D01*
X150595246Y-68703318D01*
X150991493Y-68624500D01*
X151395507Y-68624500D01*
X151791754Y-68703318D01*
G37*
G36*
X151791754Y-56511318D02*
G01*
X152165011Y-56665926D01*
X152165013Y-56665927D01*
X152500936Y-56890384D01*
X152786616Y-57176064D01*
X153011074Y-57511989D01*
X153165682Y-57885246D01*
X153244500Y-58281493D01*
X153244500Y-58685507D01*
X153165682Y-59081754D01*
X153011074Y-59455011D01*
X153011073Y-59455013D01*
X152786616Y-59790936D01*
X152500936Y-60076616D01*
X152165013Y-60301073D01*
X152165012Y-60301074D01*
X152165011Y-60301074D01*
X151791754Y-60455682D01*
X151395507Y-60534500D01*
X150991493Y-60534500D01*
X150595246Y-60455682D01*
X150221989Y-60301074D01*
X150221988Y-60301074D01*
X150221987Y-60301073D01*
X149886064Y-60076616D01*
X149600384Y-59790936D01*
X149375927Y-59455013D01*
X149375926Y-59455011D01*
X149221318Y-59081754D01*
X149142500Y-58685507D01*
X149142500Y-58281493D01*
X149221318Y-57885246D01*
X149375926Y-57511989D01*
X149600384Y-57176064D01*
X149886064Y-56890384D01*
X150221987Y-56665927D01*
X150221989Y-56665926D01*
X150595246Y-56511318D01*
X150991493Y-56432500D01*
X151395507Y-56432500D01*
X151791754Y-56511318D01*
G37*
G36*
X52068987Y-55327496D02*
G01*
X52305753Y-55425568D01*
X52305755Y-55425569D01*
X52518839Y-55567947D01*
X52700053Y-55749161D01*
X52842432Y-55962247D01*
X52940504Y-56199013D01*
X52990500Y-56450361D01*
X52990500Y-56706639D01*
X52940504Y-56957987D01*
X52850173Y-57176064D01*
X52842431Y-57194755D01*
X52700053Y-57407839D01*
X52518839Y-57589053D01*
X52305755Y-57731431D01*
X52305754Y-57731432D01*
X52305753Y-57731432D01*
X52068987Y-57829504D01*
X51817639Y-57879500D01*
X51561361Y-57879500D01*
X51310013Y-57829504D01*
X51073247Y-57731432D01*
X51073246Y-57731432D01*
X51073245Y-57731431D01*
X50860161Y-57589053D01*
X50678947Y-57407839D01*
X50536569Y-57194755D01*
X50528827Y-57176064D01*
X50438496Y-56957987D01*
X50388500Y-56706639D01*
X50388500Y-56450361D01*
X50438496Y-56199013D01*
X50536568Y-55962247D01*
X50678947Y-55749161D01*
X50860161Y-55567947D01*
X51073245Y-55425569D01*
X51073247Y-55425568D01*
X51310013Y-55327496D01*
X51561361Y-55277500D01*
X51817639Y-55277500D01*
X52068987Y-55327496D01*
G37*
G36*
X47653987Y-55327496D02*
G01*
X47890753Y-55425568D01*
X47890755Y-55425569D01*
X48103839Y-55567947D01*
X48285053Y-55749161D01*
X48427432Y-55962247D01*
X48525504Y-56199013D01*
X48575500Y-56450361D01*
X48575500Y-56706639D01*
X48525504Y-56957987D01*
X48435173Y-57176064D01*
X48427431Y-57194755D01*
X48285053Y-57407839D01*
X48103839Y-57589053D01*
X47890755Y-57731431D01*
X47890754Y-57731432D01*
X47890753Y-57731432D01*
X47653987Y-57829504D01*
X47402639Y-57879500D01*
X47146361Y-57879500D01*
X46895013Y-57829504D01*
X46658247Y-57731432D01*
X46658246Y-57731432D01*
X46658245Y-57731431D01*
X46445161Y-57589053D01*
X46263947Y-57407839D01*
X46121569Y-57194755D01*
X46113827Y-57176064D01*
X46023496Y-56957987D01*
X45973500Y-56706639D01*
X45973500Y-56450361D01*
X46023496Y-56199013D01*
X46121568Y-55962247D01*
X46263947Y-55749161D01*
X46445161Y-55567947D01*
X46658245Y-55425569D01*
X46658247Y-55425568D01*
X46895013Y-55327496D01*
X47146361Y-55277500D01*
X47402639Y-55277500D01*
X47653987Y-55327496D01*
G37*
G36*
X43238987Y-55327496D02*
G01*
X43475753Y-55425568D01*
X43475755Y-55425569D01*
X43688839Y-55567947D01*
X43870053Y-55749161D01*
X44012432Y-55962247D01*
X44110504Y-56199013D01*
X44160500Y-56450361D01*
X44160500Y-56706639D01*
X44110504Y-56957987D01*
X44020173Y-57176064D01*
X44012431Y-57194755D01*
X43870053Y-57407839D01*
X43688839Y-57589053D01*
X43475755Y-57731431D01*
X43475754Y-57731432D01*
X43475753Y-57731432D01*
X43238987Y-57829504D01*
X42987639Y-57879500D01*
X42731361Y-57879500D01*
X42480013Y-57829504D01*
X42243247Y-57731432D01*
X42243246Y-57731432D01*
X42243245Y-57731431D01*
X42030161Y-57589053D01*
X41848947Y-57407839D01*
X41706569Y-57194755D01*
X41698827Y-57176064D01*
X41608496Y-56957987D01*
X41558500Y-56706639D01*
X41558500Y-56450361D01*
X41608496Y-56199013D01*
X41706568Y-55962247D01*
X41848947Y-55749161D01*
X42030161Y-55567947D01*
X42243245Y-55425569D01*
X42243247Y-55425568D01*
X42480013Y-55327496D01*
X42731361Y-55277500D01*
X42987639Y-55277500D01*
X43238987Y-55327496D01*
G37*
G36*
X71753500Y-52576500D02*
G01*
X69851500Y-52576500D01*
X69851500Y-50674500D01*
X71753500Y-50674500D01*
X71753500Y-52576500D01*
G37*
G36*
X68539895Y-50711046D02*
G01*
X68712966Y-50782734D01*
X68712967Y-50782735D01*
X68868727Y-50886810D01*
X69001190Y-51019273D01*
X69043784Y-51083020D01*
X69105266Y-51175034D01*
X69176954Y-51348105D01*
X69213500Y-51531833D01*
X69213500Y-51719167D01*
X69176954Y-51902895D01*
X69105266Y-52075966D01*
X69105265Y-52075967D01*
X69001190Y-52231727D01*
X68868727Y-52364190D01*
X68845592Y-52379648D01*
X68712966Y-52468266D01*
X68539895Y-52539954D01*
X68356167Y-52576500D01*
X68168833Y-52576500D01*
X67985105Y-52539954D01*
X67812034Y-52468266D01*
X67679408Y-52379648D01*
X67656273Y-52364190D01*
X67523810Y-52231727D01*
X67419735Y-52075967D01*
X67419734Y-52075966D01*
X67348046Y-51902895D01*
X67311500Y-51719167D01*
X67311500Y-51531833D01*
X67348046Y-51348105D01*
X67419734Y-51175034D01*
X67481216Y-51083020D01*
X67523810Y-51019273D01*
X67656273Y-50886810D01*
X67812033Y-50782735D01*
X67812034Y-50782734D01*
X67985105Y-50711046D01*
X68168833Y-50674500D01*
X68356167Y-50674500D01*
X68539895Y-50711046D01*
G37*
G36*
X76511728Y-50807203D02*
G01*
X76666600Y-50871353D01*
X76805981Y-50964485D01*
X76924515Y-51083019D01*
X77017647Y-51222400D01*
X77081797Y-51377272D01*
X77114500Y-51541684D01*
X77114500Y-51709316D01*
X77081797Y-51873728D01*
X77017647Y-52028600D01*
X76924515Y-52167981D01*
X76805981Y-52286515D01*
X76666600Y-52379647D01*
X76511728Y-52443797D01*
X76347316Y-52476500D01*
X76179684Y-52476500D01*
X76015272Y-52443797D01*
X75860400Y-52379647D01*
X75721019Y-52286515D01*
X75602485Y-52167981D01*
X75509353Y-52028600D01*
X75445203Y-51873728D01*
X75412500Y-51709316D01*
X75412500Y-51541684D01*
X75445203Y-51377272D01*
X75509353Y-51222400D01*
X75602485Y-51083019D01*
X75721019Y-50964485D01*
X75860400Y-50871353D01*
X76015272Y-50807203D01*
X76179684Y-50774500D01*
X76347316Y-50774500D01*
X76511728Y-50807203D01*
G37*
G36*
X84131728Y-50807203D02*
G01*
X84286600Y-50871353D01*
X84425981Y-50964485D01*
X84544515Y-51083019D01*
X84637647Y-51222400D01*
X84701797Y-51377272D01*
X84734500Y-51541684D01*
X84734500Y-51709316D01*
X84701797Y-51873728D01*
X84637647Y-52028600D01*
X84544515Y-52167981D01*
X84425981Y-52286515D01*
X84286600Y-52379647D01*
X84131728Y-52443797D01*
X83967316Y-52476500D01*
X83799684Y-52476500D01*
X83635272Y-52443797D01*
X83480400Y-52379647D01*
X83341019Y-52286515D01*
X83222485Y-52167981D01*
X83129353Y-52028600D01*
X83065203Y-51873728D01*
X83032500Y-51709316D01*
X83032500Y-51541684D01*
X83065203Y-51377272D01*
X83129353Y-51222400D01*
X83222485Y-51083019D01*
X83341019Y-50964485D01*
X83480400Y-50871353D01*
X83635272Y-50807203D01*
X83799684Y-50774500D01*
X83967316Y-50774500D01*
X84131728Y-50807203D01*
G37*
G36*
X52068987Y-48890496D02*
G01*
X52305753Y-48988568D01*
X52305755Y-48988569D01*
X52518839Y-49130947D01*
X52700053Y-49312161D01*
X52842432Y-49525247D01*
X52940504Y-49762013D01*
X52990500Y-50013361D01*
X52990500Y-50269639D01*
X52940504Y-50520987D01*
X52861778Y-50711047D01*
X52842431Y-50757755D01*
X52700053Y-50970839D01*
X52518839Y-51152053D01*
X52305755Y-51294431D01*
X52305754Y-51294432D01*
X52305753Y-51294432D01*
X52068987Y-51392504D01*
X51817639Y-51442500D01*
X51561361Y-51442500D01*
X51310013Y-51392504D01*
X51073247Y-51294432D01*
X51073246Y-51294432D01*
X51073245Y-51294431D01*
X50860161Y-51152053D01*
X50678947Y-50970839D01*
X50536569Y-50757755D01*
X50517222Y-50711047D01*
X50438496Y-50520987D01*
X50388500Y-50269639D01*
X50388500Y-50013361D01*
X50438496Y-49762013D01*
X50536568Y-49525247D01*
X50678947Y-49312161D01*
X50860161Y-49130947D01*
X51073245Y-48988569D01*
X51073247Y-48988568D01*
X51310013Y-48890496D01*
X51561361Y-48840500D01*
X51817639Y-48840500D01*
X52068987Y-48890496D01*
G37*
G36*
X47653987Y-48890496D02*
G01*
X47890753Y-48988568D01*
X47890755Y-48988569D01*
X48103839Y-49130947D01*
X48285053Y-49312161D01*
X48427432Y-49525247D01*
X48525504Y-49762013D01*
X48575500Y-50013361D01*
X48575500Y-50269639D01*
X48525504Y-50520987D01*
X48446778Y-50711047D01*
X48427431Y-50757755D01*
X48285053Y-50970839D01*
X48103839Y-51152053D01*
X47890755Y-51294431D01*
X47890754Y-51294432D01*
X47890753Y-51294432D01*
X47653987Y-51392504D01*
X47402639Y-51442500D01*
X47146361Y-51442500D01*
X46895013Y-51392504D01*
X46658247Y-51294432D01*
X46658246Y-51294432D01*
X46658245Y-51294431D01*
X46445161Y-51152053D01*
X46263947Y-50970839D01*
X46121569Y-50757755D01*
X46102222Y-50711047D01*
X46023496Y-50520987D01*
X45973500Y-50269639D01*
X45973500Y-50013361D01*
X46023496Y-49762013D01*
X46121568Y-49525247D01*
X46263947Y-49312161D01*
X46445161Y-49130947D01*
X46658245Y-48988569D01*
X46658247Y-48988568D01*
X46895013Y-48890496D01*
X47146361Y-48840500D01*
X47402639Y-48840500D01*
X47653987Y-48890496D01*
G37*
G36*
X43238987Y-48890496D02*
G01*
X43475753Y-48988568D01*
X43475755Y-48988569D01*
X43688839Y-49130947D01*
X43870053Y-49312161D01*
X44012432Y-49525247D01*
X44110504Y-49762013D01*
X44160500Y-50013361D01*
X44160500Y-50269639D01*
X44110504Y-50520987D01*
X44031778Y-50711047D01*
X44012431Y-50757755D01*
X43870053Y-50970839D01*
X43688839Y-51152053D01*
X43475755Y-51294431D01*
X43475754Y-51294432D01*
X43475753Y-51294432D01*
X43238987Y-51392504D01*
X42987639Y-51442500D01*
X42731361Y-51442500D01*
X42480013Y-51392504D01*
X42243247Y-51294432D01*
X42243246Y-51294432D01*
X42243245Y-51294431D01*
X42030161Y-51152053D01*
X41848947Y-50970839D01*
X41706569Y-50757755D01*
X41687222Y-50711047D01*
X41608496Y-50520987D01*
X41558500Y-50269639D01*
X41558500Y-50013361D01*
X41608496Y-49762013D01*
X41706568Y-49525247D01*
X41848947Y-49312161D01*
X42030161Y-49130947D01*
X42243245Y-48988569D01*
X42243247Y-48988568D01*
X42480013Y-48890496D01*
X42731361Y-48840500D01*
X42987639Y-48840500D01*
X43238987Y-48890496D01*
G37*
M02*
